<?xml version="1.0" encoding="utf-8"?>
<!-- Generator: Adobe Illustrator 26.5.0, SVG Export Plug-In . SVG Version: 6.00 Build 0)  -->
<svg version="1.0" id="Layer_1" xmlns="http://www.w3.org/2000/svg" xmlns:xlink="http://www.w3.org/1999/xlink" x="0px" y="0px"
	 viewBox="0 0 605.28 431.89" style="enable-background:new 0 0 605.28 431.89;" xml:space="preserve">
<style type="text/css">
	.st0{fill-rule:evenodd;clip-rule:evenodd;fill:#FEAF39;width: 200px;}
</style>
<g>
	<path class="st0" d="M438.32,288.17v-0.19l0.22,0.15L438.32,288.17L438.32,288.17z M447.8,284.63v-0.19l0.22,0.15L447.8,284.63
		L447.8,284.63z M434.79,280.36l0.21,0.74C434.27,280.91,434.12,280.76,434.79,280.36L434.79,280.36z M434.79,279.43
		c0.65,0.17,0.42,0.07,0.74,0.56C434.47,279.74,435,279.7,434.79,279.43L434.79,279.43z M434.79,277.94
		c0.79,0.07,1.33,0.18,0.56,0.74c-0.11-0.42,0.03-0.14-0.16-0.4c-0.02-0.03-0.06-0.07-0.09-0.1c-0.02-0.03-0.07-0.07-0.1-0.09
		L434.79,277.94L434.79,277.94z M453.38,279.98c0-0.82,0.37-2.89,0.93-3.53c0,0.78-0.08,0.75,0.19,1.3
		C453.33,278.54,454.44,279.21,453.38,279.98L453.38,279.98z M436.27,275.89c0,0.93-0.17,0.83-0.19,1.67
		C435.35,277.03,435.72,276.3,436.27,275.89z M436.27,275.89c0.18-0.28,0.19,0.43,0.19-0.56h-0.19V275.89L436.27,275.89z
		 M481.09,276.64v-0.19c2.77,0,5.59-0.73,8.19-0.93c2-0.15,6.89-0.93,8.18-0.93v0.19c-0.54,0-5.59,1.37-7.62,1.49
		c-0.84,0.05-1.16,0.19-2.04,0.19c-1.05,0-1.21,0.16-2.04,0.19C484.26,276.7,482.6,276.64,481.09,276.64L481.09,276.64z
		 M485.18,273.29l0.06,0.06C485.23,273.34,485.16,273.31,485.18,273.29L485.18,273.29z M487.04,273.1c0.19-0.19,0.67,0.27,0.21,0.1
		C487.25,273.2,486.73,273.42,487.04,273.1L487.04,273.1z M489.09,272.92l0.06,0.06C489.14,272.97,489.07,272.94,489.09,272.92
		L489.09,272.92z M456.54,273.48c0.26-0.55,0.19-0.52,0.19-1.3c0.43,0.23,0.48,0.32,1.12,0.37
		C457.56,273.6,457.23,273.48,456.54,273.48L456.54,273.48z M490.95,272.55c0.19-0.19,0.67,0.27,0.21,0.1
		C491.16,272.64,490.63,272.86,490.95,272.55L490.95,272.55z M493.74,271.99h0.74v0.19h-0.74V271.99L493.74,271.99z M495.04,272.02
		c0.39-0.57,0.15-0.4,1.11-0.4v0.19L495.04,272.02L495.04,272.02z M497.27,271.24h0.56v0.19h-0.56V271.24L497.27,271.24z
		 M457.47,271.06h0.74C457.81,271.61,457.88,271.61,457.47,271.06L457.47,271.06z M498.57,270.87l0.06,0.06
		C498.62,270.92,498.55,270.89,498.57,270.87L498.57,270.87z M511.59,270.69v0.19l-0.22-0.15L511.59,270.69L511.59,270.69z
		 M506.38,269.2v0.19l-0.22-0.15L506.38,269.2z M506.38,269.2l0.22-0.03l-0.22-0.16V269.2L506.38,269.2z M458.03,268.46h0.56v0.19
		h-0.56V268.46L458.03,268.46z M460.26,267.34v0.37h-2.23c0.26-0.5,0.06-0.62,0.9-0.56C459.47,267.19,459.39,267.34,460.26,267.34
		L460.26,267.34z M496.71,265.67l0.06,0.06C496.76,265.72,496.69,265.68,496.71,265.67L496.71,265.67z M490.95,248.93h0.19
		l-0.15,0.22L490.95,248.93L490.95,248.93z M452.64,248.93v0.19l-0.22-0.16L452.64,248.93L452.64,248.93z M490.95,248.93l-0.03-0.22
		l-0.16,0.22H490.95L490.95,248.93z M452.82,248.37c-0.19,0.21-0.19-0.33-0.19,0.56C452.83,248.72,452.82,249.26,452.82,248.37z
		 M452.82,248.37v-0.19l0.22,0.15L452.82,248.37L452.82,248.37z M453.01,246.51c0.02-0.02,0.06,0.03,0.06,0.06L453.01,246.51
		L453.01,246.51z M453.57,244.84v0.74h-0.19c0-0.1,0-0.3,0.01-0.36C453.49,244.89,453.46,245.02,453.57,244.84L453.57,244.84z
		 M488.16,244.1h0.19l-0.15,0.22L488.16,244.1z M488.16,244.1l-0.03-0.22l-0.16,0.22H488.16L488.16,244.1z M453.57,244.84
		c0-1.31,0.37-2.04,0.37-3.35L453.57,244.84L453.57,244.84z M454.68,240.19c-0.49-0.28-0.48-0.45-0.24-1.73
		c0.16-0.84-0.19-0.66,0.61-0.87C454.98,238.46,454.68,239.21,454.68,240.19L454.68,240.19z M481.65,236.1
		c1.05,0.56,1.61,0.96,1.86,2.05C482.45,237.86,481.96,236.7,481.65,236.1L481.65,236.1z M478.86,235.54v0.19l-0.22-0.16
		L478.86,235.54z M478.86,235.54l0.22-0.03l-0.22-0.15V235.54L478.86,235.54z M484.62,234.24l2.56,2.46
		c-0.01-0.71-0.19-0.93-0.33-1.53c0.8,0.53,1.59,1.81,1.67,2.79c-0.46-0.31-0.77-0.51-0.93-1.12c-0.05,0.02-0.11,0.01-0.13,0.07
		C487.18,237.85,484.72,234.6,484.62,234.24z M484.62,234.24l-0.03-0.22l-0.16,0.22H484.62L484.62,234.24z M473.28,232.94v-0.19
		l0.22,0.16L473.28,232.94L473.28,232.94z M473.84,232.38c0.19-0.19,0.67,0.27,0.21,0.1C474.05,232.48,473.53,232.69,473.84,232.38
		L473.84,232.38z M473.28,232.94c-0.87,0.2-0.58,0.25-1.19,0.67c-0.97,0.66-2.64,1.35-3.83,1.38c0-0.71,0.07-0.95,0.36-1.31
		c0.23-0.3,0.48-0.44,0.81-0.68c0.99-0.74,4.61-3.15,5.16-3.96c-0.74,0.17-2.59,1.42-3.31,1.89c-0.22,0.14-1.41,0.94-1.59,0.98
		l-1.97,0.1c0.2-0.74,0.69-0.88,1.17-1.43c0.4-0.46,0.54-1.1,0.69-1.73c-0.5,0.33-0.99,0.6-1.49,0.93
		c-0.47,0.32-0.84,0.59-1.49,0.74c0.19-0.71,0.79-1.17,1.25-1.72c0.33-0.38,0.27-0.43,0.65-0.83c0.42-0.44,0.34-0.15,0.51-0.79
		c-0.83,0.22-2.05,0.98-2.52,1.94l-2.79,15.8c-0.35,1.71-0.7,3.12-1.02,4.74l-2.18,9.35c-0.58,2.32-0.97,2.82-0.97,4.61
		c1.44-0.03,0.31-0.51,2.09-0.23c2.63,0.42,8.73,0.61,11.69,0.96c1.3,0.15,3.6,0.01,5.01,0.01c4.93,0,13.38-0.63,17.48-2.6
		c-0.12-1.49-0.47-1.51-1.49-2.05c0-1.02-0.3-1.6,0-2.23c-0.7-0.19-0.54-0.36-1.12-0.74v-1.49c-0.88-0.07-0.68-0.21-1.05-0.99
		c-1.54-3.22-6.11-10.53-8.06-13.33c-0.43-0.62-3.21-3.76-3.35-4.27c-0.73,0.17-1.9,0.98-2.64,1.45c-1.26,0.8-1.88,1.47-2.56,1.16
		c0.17-0.47,0.55-0.73,1.3-0.93l-0.93-0.19l1.69-1.61c0-0.03-0.01-0.04-0.02-0.06c-0.37-0.16-1.85,0.89-2.34,1.19
		c-0.88,0.54-1.07,0.63-2.68,0.67c0.01-0.57,0.08-0.68,0.19-1.12h-1.49c0.39-0.73,0.23-0.79,0.96-1.27c0.62-0.4,0.68-0.35,1.08-0.96
		c-0.65,0.15-0.51,0.18-1.01,0.48l-2.53,1.38c0.17-0.62,0.34-0.63,0.79-1.07C471.26,235.06,473.03,233.87,473.28,232.94
		L473.28,232.94z M469.19,226.99l-0.19,0.19L469.19,226.99z M469.19,226.99v-0.19l0.22,0.16L469.19,226.99L469.19,226.99z
		 M467.7,221.04l0.06,0.06C467.75,221.09,467.68,221.05,467.7,221.04L467.7,221.04z M447.06,218.62l0.06,0.06
		C447.11,218.67,447.04,218.64,447.06,218.62L447.06,218.62z M447.25,217.69h0.19l-0.16,0.22L447.25,217.69z M447.25,217.69
		l-0.03-0.22l-0.15,0.22H447.25L447.25,217.69z M496.9,216.95c-0.16,0.61-0.47,0.81-0.93,1.12
		C496.13,217.45,496.43,217.26,496.9,216.95L496.9,216.95z M447.06,216.57l0.06,0.06C447.11,216.62,447.04,216.59,447.06,216.57
		L447.06,216.57z M447.25,214.34h0.19v1.3h-0.19V214.34L447.25,214.34z M496.9,216.95c0.75-0.5,0.87-0.87,1.44-1.53
		c0.3-0.36,0.37-0.49,0.66-0.83c0.4-0.47,0.32-0.12,0.5-0.8C498.95,214.15,497.05,216.36,496.9,216.95L496.9,216.95z M499.5,213.78
		c0.17-0.65,0.07-0.42,0.56-0.74C499.88,213.69,499.99,213.46,499.5,213.78L499.5,213.78z M447.43,213.78v-0.93
		c0.23,0.17,0.3,0.06,0.32,0.37C447.76,213.39,447.65,213.69,447.43,213.78L447.43,213.78z M447.43,211.74v-0.74h0.37
		C447.72,211.97,447.46,211.67,447.43,211.74L447.43,211.74z M447.62,208.95l0.06,0.06C447.67,209,447.6,208.97,447.62,208.95
		L447.62,208.95z M448.17,204.67c0-0.47,0.3-0.04,0.11,0C448.29,204.67,448.17,205.2,448.17,204.67L448.17,204.67z M448.36,202.44
		v1.12h-0.37C447.99,202.59,447.82,202.83,448.36,202.44L448.36,202.44z M455.24,237.03c-0.59-0.43-0.44,0.08-0.17-2.21
		c0.08-0.67,0.28-1.74,0.35-2.44l1.58-12.38c0.12-0.66,0.22-0.4-0.04-1.03c-0.02-0.04-0.05-0.08-0.07-0.12l-0.09-0.82
		c0.49,0.21,0.4,0.92,0.3-1.07c-0.05-0.92-0.27-1.56-0.15-2.38l0.89-12.5c0-0.29-0.03-1.03,0.02-1.28c0.12-0.58,0.2-0.56,0.91-0.58
		c0,1.07-0.13,1.45-0.19,2.23c-0.06,0.82,0.04,1.78,0.01,2.61l-0.37,7.07c-0.04,2.92-0.93,8.77-0.94,11.71
		C457.29,224.89,455.28,235.24,455.24,237.03L455.24,237.03z M447.99,200.02c0.59,0.43,0.37,0.67,0.37,1.67h-0.19
		C448.17,200.77,448.01,200.87,447.99,200.02L447.99,200.02z M467.7,219.18l0.37-6.88c0.06-0.8-0.02-1.79-0.01-2.61
		c0.01-0.94,0.2-1.13,0.2-2.22c-0.01-1.49,0.13-6.23,0.37-7.25c1.18,0,1.55-0.19,2.79-0.19h16.92l-11.39,12.04l-3.52,2.81
		c-0.48,0.38-0.82,0.68-1.35,1.07c-0.57,0.42-0.92,0.69-1.49,1.12C469.57,217.81,468.72,218.5,467.7,219.18L467.7,219.18z
		 M441.48,193.89h1.12v0.19h-1.12V193.89L441.48,193.89z M435.53,184.96c0.02-0.02,0.06,0.03,0.06,0.06L435.53,184.96L435.53,184.96
		z M446.87,178.27l0.06,0.06C446.93,178.32,446.85,178.28,446.87,178.27L446.87,178.27z M446.69,175.48h-0.19l0.15-0.22
		L446.69,175.48L446.69,175.48z M450.03,170.46h0.19l-0.16,0.22L450.03,170.46L450.03,170.46z M452.64,170.08l0.06,0.06
		C452.69,170.14,452.62,170.1,452.64,170.08L452.64,170.08z M452.45,169.71l0.06,0.06C452.5,169.76,452.43,169.73,452.45,169.71
		L452.45,169.71z M450.03,170.46l-1.49-0.93c-0.67,0.35-0.69,0.29-1.12,0.93c0.19,0.82,0.48,0.78,0.56,1.67
		c-0.43,0.29-0.37,0.36-1.12,0.37c0.2,0.29,0.43,0.57,0.57,0.92c0.12,0.28,0.1,0.18,0.14,0.57l0.03,3.71l-0.93,0.19l-0.08-1.05
		c0.15-0.62,0.2,0.1,0.22-0.59c0-0.18-0.1-0.3-0.14-0.78l0.71,0.59l0.03-1.15c-1.49,0.03-0.7,0.56-1.56-1.6
		c-0.43-1.09-0.87-1.49-1.42-2.3c-0.47,0.32-0.6,0.48-0.93,0.93c-0.34,0.47-0.62,0.65-0.93,1.12c0.37,1.57,1.49,3.89,1.49,5.39
		c-0.88,0.46-0.76,0.37-2.05,0.37c-0.3,0.44-0.23,0.19-0.37,0.74c-1.47,0-3.38,0.08-4.74-0.12c-0.78-0.12-0.71,0.02-1.03,0.5
		c0.16,0.61,0.32,0.77,0.93,0.93c0.13-0.54-0.02-0.27,0.37-0.56l0.89,0.97c0.84-0.47,0.38,0.01,0.6-0.6c1.75,0,1.02-0.13,2.05,0.56
		c0.44-0.3,0.19-0.23,0.74-0.37l0.74,0.93c-2.46,0-1.58-0.13-2.29,0.33c-0.9,0.59-0.94-0.06-1.62-0.52l-1.07,1.16
		c-0.08-0.54-0.13-0.55-0.23-0.97c-0.68,0.18-0.39,0.2-0.93,0.56l-0.21-0.74l-0.76,0.7c-0.51-0.11-0.26-0.03-0.7-0.33
		c-0.52,2.22,1.53,0.61,3.33,1.87l0.2,0.17c-4.73,0-3.3,0.59-3.16,1.12l-0.18,0.2c-0.8,1.16,0.25,0.87,0.88,0.96
		c0.64,0.09,2.08,0.33,2.84,0.33v0.37c-1.34,0-2.21,0.35-3.35,0.37c0.12,1.44,0.6,1.01,1.86,1.3v0.74l-1.11,0.21l-0.01,0.53
		l4.46,0.19c-0.4,0.76-0.22,0.49-1.23,0.81c-0.64,0.21-1.07,0.43-1.74,0.49c0.12,1.46,1.41,1.28,1.76,1.4
		c0.83,0.29,0.01-0.12,0.62,0.5c0.95,0.97,0.39,2.18,0.86,2.86c0.36,0.51-0.1,0.04,0.47,0.27c1.05,0.42,0.4,0.3,1.02,0.65l1.59,1.01
		c-0.18,0.69-0.19,0.24-0.37,0.93c0.4-0.09,1.14-0.39,1.49-0.56c0.41,0.78,0.13,0.74,1.3,0.74c0,4.2-0.36,7.81-0.37,11.91
		c0,1.08-0.2,1.53-0.19,2.78l-0.39,5.75c-0.59,5.28-0.92,8.39-1.8,13.63c-0.6,3.58-1.36,6.92-1.93,10.53
		c-0.94,5.97-3.1,14.05-4.59,19.95l-2.71,9.56c-0.5,1.69-0.85,3.1-1.35,4.79c-0.7,2.36-1,2.96-1,5.32c0.63-0.23,0.91-1.33,1.49-2.42
		h1.49l1.49,1.86c-0.72,3.09-1.83,3.66,0.74,5.02c0.41-0.22,0.56-0.31,0.93-0.56l0.56,0.56c0.18,0.69,0.19,0.24,0.37,0.93l1.92-4.41
		c0.21-0.52,0.38-1.02,0.5-1.55l2.23,0.93c0.41-0.86,0.28-2.53,1.67-2.23c-0.31,0.65-0.62,3.02-0.73,3.92
		c-0.35,3.02-0.73,3.41,0.35,3.7c0.29-1.26,1.12-1.26,1.12-2.79c0.38,0.4,0.32,0.66,0.68-0.43c0.19-0.57,0.31-0.89,0.44-1.43
		l0.74,0.37c0-0.98,0-0.28,0.19-0.56c0,0.7-0.73,4.42-0.93,4.84c0.78-0.06,0.75-0.25,1.08-0.78c0.92-1.45,0.93-2.81,1.64-3.93
		c0.27-0.43,0.04-0.08,0.25-0.31c-0.06,0.72-0.19,0.6-0.19,1.49c1.34-0.31,1.43-0.95,2.25-3.14c0.25-0.68,0.15-0.74,1.1-0.76
		c0.1,0.44,0.17,0.55,0.19,1.12c0.63-0.46,0.2,0.06,0.45-0.85l1.06-3.41c0.23-0.71,0.51-1.46,0.75-2.23
		c0.23-0.74,0.39-1.57,0.72-2.26c1.58,1.06,1.69,0.56,2.23,1.3c-0.54,0.15-1.24,0.64-1.67,0.93c0.14,1.72,0.47,1.44,0.85,1.57
		c0.56,0.2,1.35,0.43,1.94,0.47l-0.97,1.08c0.16,0.58,0.28,0.7,0.51,1.24c0.49,1.15,0.94,0.55,3.25,1.78
		c-0.3,0.4-0.37,0.19-0.51,0.72c-0.01,0.03,0,0.09-0.01,0.12c-0.08,0.42-0.19,0.75,1.3,0.98c0.73,0.11,1.14,0.15,1.81,0.23
		l10.09,1.63c0.77,0.12,10.54,0.16,11.6-0.03l3.61-0.3c2.61-0.18,4.5-0.47,6.8-1.01c2.24-0.52,4.14-0.94,6.32-1.49
		c2.51-0.63,3.55-0.73,5.9-1.91c1.19-0.59,2.24-1.63,3.15-2.62c0.53-0.57,0.38-0.71,0.69-1.35c-1.33,0.11-1.17,1.66-3.53,1.86
		c1.56-2.94,3.68-2.02,4.28-4.28c-0.86,0.02-1.83,0.38-2.6,0.56c0.31-1.17,1.57-1.91,1.86-3.16h-1.12c1.46-3.03,0.75-2.14-0.37-2.05
		c-0.4-0.54-0.12-0.23-0.74-0.56c0.33-0.62,0.14-0.52,0.74-0.93c0.49,0.33,0.38,0.09,0.56,0.74h0.37c0.06-0.72,0.17-0.48,0.19-1.3
		c0.43,0.29,0.6,0.5,1.3,0.56c-0.02-0.92-0.34-2.23-0.38-3.15l0.01-3.35c0,0.32,0.59,1.96,0.71,2.26c0.31,0.78,0.89,1.04,1.52,1.46
		c0.57-1.19,0.17-2.31,0.58-3.51c0.48-1.41,0.47-1.87,0.12-3.51c-0.3-1.41-0.51-1.68-1.14-2.95c-0.54-1.09-0.68-2.04-0.68-3.6
		c-1.13-0.75-2.15-4.74-2.73-6.19c-1.39-3.45-3.03-6.87-4.7-10.17c-0.21-0.41-0.35-0.58-0.56-0.93l-3.98-6.43
		c-0.47-0.64-0.83-1.06-1.26-1.71l-2.52-3.43c-2.03-2.66-1.11-1.7,2.11-5.97c1.42-1.89,3.21-3.59,4.42-5.63
		c0.36-0.61,0.59-1.05,0.98-1.63c1.67-2.5,4.36-8.59,1.86-11.19l-1-1.41c-0.34-0.53-0.68-1.11-0.96-1.64
		c-0.81,0.19-1.05,0.56-1.86,0.74c-0.05-0.58,0-0.35-0.19-0.74c0.45-0.22,0.85-0.32,1.3-0.56c0-0.99,0.07-2.13-1.12-2.23
		c-0.07-0.85-0.38-1.83-0.56-2.6c-0.71-0.06-1.52-0.31-2.23-0.37c0.4-0.59,0.31-0.13,0.37-0.93c-0.42-0.1-0.42-0.1-0.81-0.3
		l-0.67-0.44c1.28,0,1.3-0.34,2.23-0.56v-0.56c-0.62-0.14-0.8-0.33-1.3-0.56c-0.46-0.21-0.85-0.32-1.3-0.56
		c0.15-0.55,1.25-1.37,0.36-1.65c-0.39-0.12-2.05-0.04-2.78-0.21c0.15-0.1,0.08-0.09,0.37-0.19l1.3-0.37
		c-0.22-0.61,0.24-0.14-0.56-0.56l0.38-0.74l-4.1-0.56c0.76-0.18,0.88-0.42,1.24-0.99c0.07-0.11,0.27-0.27,0.43-0.5
		c-0.57-0.38-0.41-0.56-1.12-0.74c0.28-0.2,0.44-0.14,0.74-0.56c-2.61-1.75-2.08-0.87-4.26-1.13c-1.9-0.22-3.52-0.22-5.42,0
		c-1.68,0.2-4.37-0.35-5.36,0.04c-0.72,0.28-0.33,0.26-0.98,0.21c-2.14-0.18-12.56,0.27-13.02-0.19c-0.56-0.56-1.11-6.79-2-8.23
		c-0.62-1.01-1.57-0.34-2.05-2.41l-0.37,0.74l-0.9-0.78c-0.58,0.45-0.78,0.25-0.22,0.78c-0.55,0.15-0.3,0.08-0.74,0.37
		c0.26,0.55,0.44,1.26,0.68,1.93c0.36,1.03,0.54,1.41-0.3,1.98l-1.45-5.96c-0.46,0.23-0.6,0.32-0.97,0.57
		c-0.66-0.15-1.63-0.37-2.42-0.37c0.08,0.92,0.48,1.81,0.56,2.79l-0.56-1.3c-0.44,0.3-0.19,0.22-0.74,0.37
		c-0.07-0.79-0.31-0.88-0.37-1.67c-0.83,0.07-0.86,0.31-0.93,1.12c-1.12-0.26-0.68-0.16-1.12,0.74c-0.34-0.25-0.32-0.41-0.74-0.56
		c-0.06,0.06-0.18,0.18-0.26,0.29l-0.3,0.45c-0.11-0.49-0.17-0.55-0.37-0.93c-0.74,0.3,0.03-0.02-0.41,0.33
		c-0.29,0.23,0.23-0.01-0.47,0.27c-0.43,0.17-0.72,0.28-1.16,0.51L450.03,170.46z"/>
	<path class="st0" d="M146.18,288.73l0.06,0.06C146.23,288.78,146.16,288.74,146.18,288.73L146.18,288.73z M144.67,290.4
		c0.12-0.44,0.19-0.56,0.21-1.12h0.93v0.74c0.95-0.25,1.04-1.02,1.67-1.49v1.3c0.94-0.63,0.98-1.46,2.42-1.49
		c0.07-0.81,0.68-1.26,1.3-1.67c0.65,0.34,0.53,0.01,0.37,0.74c0.78-0.57,2.58-4.05,3.16-5.2l1.42-2.67
		c2.23-4.03,5.33-9.98,7.02-14.18l3.72-8.92c1.86-4.63,3.29-9.42,4.78-14.18c0.18-0.58,0.26-1.14,0.53-1.7h21.76
		c0,2.15,0.23,11.07-0.04,12.79c-0.48,3.04-0.39,9.72-0.51,12.69l-0.75,8.18l0.37-8.37c0.1-1.34-0.06-2.92-0.01-4.28
		c0.03-0.83,0.2-0.99,0.19-2.04c0-0.74,0-1.49,0-2.23c0-0.67-0.04-1.36,0.05-2.01l-0.02-0.81c-0.11-0.41-0.11,0.1-0.08-0.29
		c0-0.04,0.12-0.27,0.12-0.29c0.08-0.43-0.07-3.24-0.07-4.21c0-1.62,0.19-2.47,0.19-4.09c0-1.49,0-2.98,0-4.46
		c-0.61,0.45-0.3,0.13-0.38,1.11l-0.99,15.93c-0.31,1.7-0.16,4.02-0.3,5.84l-0.37,5.77c-0.04,2.57-0.59,5.93-0.57,8.54
		c0.02,1.93-0.35,3.98-0.38,5.76c-0.02,1.29-0.19,2.06,0.57,2.61c1.16-0.85,1.19-2.31,1.3-3.72c0.15-1.76,0.37-2.94,0.37-5.02h0.19
		c0,1.13-0.16,3.96-0.08,4.53c0.14,1.03,0.08,1.18,0.38,2.05l0.82,1.6l0.56-5.58c0.03-0.84,0.19-1.01,0.19-2.04l0.19,3.53
		c0.39-0.28,0.22-0.03,0.39-0.54c0.06-0.18,0.17-0.7,0.17-0.95h0.19c0,1.64,0.34,2.85,0.07,4.35c-0.42,2.32-0.11,2.63,1.23,3.27
		c0.34-0.5,0.87-0.79,1.05-1.37c0.14-0.46,0.25-1.62,0.25-2.16l1.14,2.41c0.63-0.47,0.28-0.64,0.34-1.66
		c0.05-0.71,0.19-0.88,0.19-1.86c0.56,0.41,0.37,0.32,0.37,1.3l0.74,0.21c0.01,1.88-0.32,3.1-0.18,4.81
		c0.57-0.15,0.87-0.45,1.3-0.74c-0.17-0.71-0.58-2.75,0.22-3.32l0.9-0.59v5.21c0.47-0.11,0.63-0.2,1.06-0.42
		c0.67-0.35,0.5-0.18,0.66-1.01c0.14-0.72,0.49-1.77,0.51-2.65c0.03,0.03,0.07,0.04,0.09,0.1c0.14,0.66,1.03,0.47,1.03,2.87h0.37
		c0.1-0.42,0.14-0.43,0.19-0.93c0.41,0.2,0.73,0.32,1.3,0.37c0.49-0.93,0.52-2.2,0.55-3.36l0.38-1.11c0,0.77-0.29,2.37,0.28,2.88
		l0.2,0.17c0.55,0.47,1.23,0.69,1.93,0.85c0-1.12,0.1-1.99,0.19-3.16l2.05-21.94c0,3.2-0.05,7.64-0.52,10.64l-0.24,9.64
		c0,0.96-0.14,0.73,0.38,1.11c0.2-2.43,0.9-3.05,0.93-4.84c0.02-1.33,0.38-3.66,0.37-5.58l1.01-16.47c0.18-0.97,0.09-1.83,0.1-2.87
		c0.04-2.6,0.39-5.63,0.38-8.55c0-1.25,0.19-1.71,0.19-2.78c0-0.99,0-1.99,0-2.98c0.7-0.06,0.61-0.18,1.48-0.19
		c0.61-0.01,1.23,0.06,1.83-0.03c1.15-0.18,5.84-0.16,6.49-0.58c0.28-0.18,0.68-0.66,0.94-0.92c0.54-0.55,0.37-0.51,1.35-0.51
		c-0.02-1.09-0.29-0.71-0.37-1.67c0.57-0.77,0.49,0.04,0.74-0.93c-0.99,0-1.13-0.12-1.86-0.19c0.26-1.12,0.83-1.97,0.93-3.16
		c-0.85-1.27-1.4-0.74-2.98-0.74v-0.74l-3.53,0.19c0.04-1.67,0.67-0.03,4.84-2.23c-0.47-0.64-0.57-0.51-1.15-1.45
		c-0.59-0.96-0.77-0.83-0.52-1.9c-2.35,0-1.47,0.61-3.02-0.89c-1.18-1.15-1.34-0.69-2.14-0.91c-0.12-0.03-0.43-0.31-0.6-0.43
		c0.2-0.3,0.37-0.56,0.6-0.89c0.29-0.43,0.47-0.52,0.52-1.15c-0.67-0.18-0.57-0.4-1.14-0.72c-0.59-0.33-0.1-0.08-0.71-0.22
		l-0.75-0.36c0.65,0,1.01-0.03,1.48-0.2c0.66-0.24,0.69-0.14,0.76-0.92h-2.42c-0.37-1.61-0.29-4.58-0.04-6.18
		c0.19-1.23-0.08-2.2-0.15-3.12c-0.08-1.01,0.15-2.2-0.37-2.98l0.32-0.42c0.4-0.74,0.19-1.55,0.02-2.16
		c-0.19-0.67,0.03-0.47,0.15-1.2c0.1-0.56-0.23-0.84-0.26-1.25l0.28-6.53c0.32-2.07,0.08-4.88-0.13-6.67
		c-0.16-1.37-0.02-3.42-0.19-4.83c-0.06-0.51-0.01-1.3-0.01-1.85c-0.79-0.07-1.03-0.54-1.5-1.1l-0.36,2.22
		c0-1.21-0.48-2.86-1.49-3.53c-0.78,0.57-0.14,0.79-1.12,1.3v-1.67c-0.98,0-0.28,0-0.56-0.19l-1.08,0.97l-0.24-0.77
		c-0.88,0.23-0.19,0.31-1.09,0.55c-0.17-0.73-0.09-0.75-0.74-0.93c0,1.35,0.19,2.06,0.19,3.53l-0.72,0.59
		c-0.33-1.32-0.83-2.61-0.96-4.12h-0.37c0.1,0.43,0.35,0.96,0.36,1.31c0.03,0.69-0.3,0.61-0.14,1.62c0.19,1.21,0.26,1.95-0.04,3.21
		c-0.39-0.29-0.21-0.03-0.39-0.54c-0.28-0.82-0.17-1.76-0.17-2.62c0.01-1.56-0.27-2.13-0.37-3.35l-1.27,1.15
		c-0.86-0.06-0.91-0.22-1.9-0.22c-0.42-0.8,0.05-0.34-0.56-0.56l0.22,2.6c-1.85-0.15-1.36-0.36-1.71-1.86l-0.12,0.01
		c-0.68,0.09,0.12,0.4-0.28,0c-0.25-0.26-0.05-0.01-0.15-0.38h-2.05c-0.14,0.59-0.24,1.27-0.37,1.86l-0.74-1.67
		c-1.51,0.13-0.56,1.63-0.56,4.46c0,0.77,0.07,0.87,0.15,1.34l0.04,4.24c0-1.03-0.31-1.47-0.49-2.49c-0.24-1.32,0.12-1.81,0.12-2.91
		h-0.19c0,0.81,0.1,0.4-0.37,0.74c-0.12-1.49-0.99-2.97-1.12-4.46c-2.31,0.54-1.48,1.75-1.49,4.09c0,2.05,0,4.09,0,6.14
		c0,2.18,0.19,3.65,0.19,5.76c0,2.05,0,4.09,0,6.14h0.56l0-6.14c0-1.02,0.19-1.27,0.19-2.04v14.13c0-1.06-0.02-1.65-0.15-2.46
		c-0.07-0.46-0.02-0.82-0.03-1.27c-0.03-0.8-0.13-0.58-0.19-1.3l-0.37,16.36h-16.92l1.32-12.62c0.09-0.65,0.3-1.77,0.35-2.44
		c0.27-3.56,0.65-7.37,0.38-10.97c-0.06-0.73-0.13-0.38-0.19-1.11c-0.09-1.25-0.01-2.67-0.39-3.88c-0.19-0.61-0.15-1.3-0.52-1.88
		c-1.57-2.39-1.91-3.72-4.85-3.72c0.14-0.12,0.05-0.12,0.31-0.24c0.38-0.17,0.09-0.05,0.43-0.13c-0.42-0.57,0.12-0.3-0.74-0.37
		c0.25-0.37,0.34-0.52,0.56-0.93c-1.75-2.61-1.35-0.56-2.23-2.23l-7.45-0.01c-0.81,0.03-0.59,0.14-1.29,0.19l-2.59,0
		c-1.05-0.05-1.86,0.08-2.87-0.11c-2.53-0.45-5.26,0.62-6.96,0.26l-1.2-0.35c-0.1,0.43-2.44,0.16-2.9,0.2L138,179.2
		c-2.81,0-1.72-0.34-3.35,0.74v-0.74c-0.43,0.32-0.79,0.87-0.93,1.49c1.97,0.46,4.08,0.15,4.65,0.93c-0.92,0-1.08-0.19-1.68-0.19
		c-0.76-0.01-1.05,0.22-1.11,0.94c0.81,0,1.04,0.18,1.85,0.19c0.68,0.01,1.37-0.01,2.05-0.01v0.37c-2.16,0-3.88,0.51-4.28,2.23
		c0.38,0.18,1.02,0.26,1.49,0.37c-0.06,0.76-0.1,0.76-0.74,0.93c0.01,0.57,0.08,0.68,0.19,1.12h1.12v0.93c-0.9,0.32,0.46-0.4-0.56,0
		c0.16,0.71,0.57,1.14,0.93,1.67h5.21c-0.03,0.03-0.08,0.03-0.1,0.08l-0.36,0.2c-0.45,0.27-0.28-0.03-0.47,0.46
		c0.92-0.21,2.03,0,3.35,0v0.19c-1.19,0-2.5-0.13-3.65,0.07l-2.36,0.43c-0.06,0.01-0.25,0.05-0.31,0.07
		c-0.32,0.1-0.21,0.06-0.39,0.17c0.87,0.2,2.74,0.56,3.72,0.56l-2.98,0.37c1.2,0,1.67,0.19,2.97,0.19l2.54,0.06
		c0.04,0.01,0.09,0.04,0.13,0.05c0.25,0.12,0.17,0.14,0.31,0.25c-1.98,0-1.84-0.21-2.05,0.56c0.73,0,0.75,0.06,1.3,0.19
		c-0.3,0.44-0.22,0.19-0.37,0.74c0.78,0.07,0.99,0.37,1.67,0.37v0.19c-0.45,0-0.49,0.1-0.78,0.15l-3.12,0.23
		c0.07,0.83-0.24,0.2,0.88,1.16c0.77,0.66,1.19,0.72,2.13,1.03c1.58,0.51,1.27,1.08,2.07,1.29c0.73,0.18,0.05-0.14,1.61,0.04
		c0.63,0.07,1.57,0.02,2.22,0.02l4.27,0.19l-0.41,5.17c-0.38,2.55-1.6,12.92-2.38,14.55h-14.13c-0.33,0.49-0.46,0.77-0.74,1.3
		c0.5,0.95,0.45,0.75,0.19,1.86c0.51,0.76,0.94,1,1.12,1.67c0.69-0.18,0.24-0.19,0.93-0.37v0.93c0.72,0.06,0.48,0.17,1.3,0.19v0.37
		c-0.99,0-1.04,0.17-1.86,0.19c0.95,1.29,2.34-0.09,4.28,0.93c-0.18,0.68-0.2,0.39-0.56,0.93c-2.25,0-1.37,0.07-2.79,0.19
		c0.07,0.79,0.31,0.88,0.37,1.67c1.38,0.11,2.82,0.74,4.28,0.74v0.19c-1.02,0-2.14,0.47-3.16,0.56v0.37
		c2.29,0.53,5.85-0.03,8.37,0.56l-0.24,0.13c-0.07,0.03-0.17,0.07-0.27,0.1c-0.32,0.1-0.24,0.09-0.62,0.13
		c-0.54,0.05-0.84-0.01-1.4,0.09c-0.6,0.11-2.16,0.29-2.68,0.3l0.4,0.54l-2.25,0.24l0,0.52c1.03,0.09,1.3,0.53,2.42,0.56
		c0,2.03-0.92,1.55-1.3,2.98h2.23c0.56,1.17,0.16,1.51,1.67,1.86l-2.76,8.95c-1.2,3.04-2.53,6.85-3.93,9.64
		c-0.23,0.45-0.46,0.85-0.67,1.38c-0.43,1.06-0.82,1.86-1.22,2.87c-0.47,1.2-1.66,4.34-2.43,5.38c-0.9,1.22,0.53-0.1-1.19,2.72
		l-2.27,4.42c-0.17,0.26-0.31,0.29-0.52,0.59l-2.74,5.07c-0.3,0.6-0.45,0.76-0.75,1.3c-0.27,0.49-0.44,0.91-0.68,1.37
		c0.33,0.62,0.14,0.52,0.74,0.93c0.39-1.69,0.71-0.42,0.74-2.05c1.76,0,1.16-0.31,2.68-2.34l3.46-5.1c-0.05,0.57-0.18,0.89-0.37,1.3
		c1.06-0.28,1.33-1.82,2.23-2.42c-0.28,1.19-2.01,4.37-2.67,5.7c-0.48,0.97-1.4,2.69-1.61,3.6c0.3,0.15-0.34,0.19,0.56,0
		c-0.17,0.34-0.14,0.23-0.19,0.74l0.74-0.21c-0.36,0.82-1.32,2.55-0.92,3.37c0.29-0.19,0.52-0.37,0.85-0.63
		c0.56-0.43,0.32-0.49,1-0.67c-0.4,0.77-0.56,0.85-0.56,2.05c0.22,0.05,0.66,0.15,0.88,0.25l0.42,0.49
		c1.04-0.09,0.21-0.18,0.81-0.26c0.28-0.04,0.37-0.03,0.56,0.37c0.52,1.11-0.53,0.64,0.86,1.38c0.2-0.74,0.46-0.57,0.87-1.36
		c0.32-0.61,0.45-0.85,0.85-1.38c0.57-0.74,1.37-2.23,1.99-2.65c0.96,1.82,0.33,2.25-0.34,4.69c-0.21,0.78-0.47,1.1-0.22,1.64
		c0.86-0.23,0.75-1.14,1.49-1.67c0.4,0.75,0.58,0.6,0.37,1.49l0.68,0.56H144.67L144.67,290.4z M144.32,288.73l0.06,0.06
		C144.37,288.78,144.3,288.74,144.32,288.73L144.32,288.73z M206.06,284.26h0.19v0.56h-0.19V284.26L206.06,284.26z M203.08,284.45
		l0.06,0.06C203.13,284.5,203.06,284.47,203.08,284.45L203.08,284.45z M142.65,283.33l0.06,0.06
		C142.7,283.38,142.63,283.35,142.65,283.33L142.65,283.33z M143.02,282.96v0.19l-0.22-0.15L143.02,282.96z M143.02,282.96l0.1-0.4
		L143.02,282.96L143.02,282.96z M134.46,281.66l0.06,0.06C134.51,281.71,134.44,281.68,134.46,281.66L134.46,281.66z M144.13,280.91
		h0.19v0.56h-0.19V280.91L144.13,280.91z M144.5,280.36c0-0.47,0.3-0.04,0.11,0C144.62,280.36,144.5,280.88,144.5,280.36
		L144.5,280.36z M145.31,279.46l-0.06-0.96h0.56L145.31,279.46L145.31,279.46z M192.85,276.08h0.19v0.93h-0.19V276.08L192.85,276.08
		z M146.18,277.94c-0.61-0.44-0.56,0.14,0.4-1.83c0.21-0.44,0.82-1.53,1.28-1.7c-0.16,0.62-0.13,0.3-0.44,0.87L146.18,277.94
		L146.18,277.94z M147.85,273.85l0.06,0.06C147.9,273.9,147.83,273.87,147.85,273.85L147.85,273.85z M136.32,274.03l0.1-0.4
		L136.32,274.03L136.32,274.03z M148.41,273.1c-0.12,0.45,0.08,0.25-0.37,0.37L148.41,273.1L148.41,273.1z M148.6,272.73l-0.19,0.37
		L148.6,272.73z M148.6,272.73v-0.19l0.22,0.16L148.6,272.73L148.6,272.73z M148.78,272.36v-0.74h0.37
		C149.07,271.96,149.07,272.23,148.78,272.36L148.78,272.36z M137.44,271.62l0.06,0.06C137.49,271.67,137.42,271.64,137.44,271.62
		L137.44,271.62z M137.62,271.24l0.06,0.06C137.68,271.3,137.61,271.26,137.62,271.24L137.62,271.24z M149.34,270.87l0.06,0.06
		C149.39,270.92,149.32,270.89,149.34,270.87L149.34,270.87z M137.81,270.87l0.06,0.06C137.86,270.92,137.79,270.89,137.81,270.87
		L137.81,270.87z M149.53,270.5c0-0.47,0.3-0.04,0.11,0C149.64,270.5,149.53,271.03,149.53,270.5L149.53,270.5z M138,270.5
		l0.06,0.06C138.05,270.55,137.98,270.52,138,270.5L138,270.5z M138.37,270.13v0.19l-0.22-0.16L138.37,270.13L138.37,270.13z
		 M138.55,269.76l-0.19,0.37L138.55,269.76L138.55,269.76z M138.74,269.39l-0.19,0.37L138.74,269.39L138.74,269.39z M138.93,269.01
		l-0.19,0.37L138.93,269.01L138.93,269.01z M150.46,268.46l0.4,0.54c-0.15,0.16-0.07,0.03-0.28,0.32c-0.56,0.77-0.2,0.64-0.86,0.81
		L150.46,268.46L150.46,268.46z M139.11,268.64l-0.19,0.37L139.11,268.64L139.11,268.64z M139.3,268.27l-0.19,0.37L139.3,268.27
		L139.3,268.27z M150.64,268.27l-0.19,0.19L150.64,268.27L150.64,268.27z M150.83,268.08l-0.19,0.19L150.83,268.08L150.83,268.08z
		 M139.48,267.9l-0.19,0.37L139.48,267.9L139.48,267.9z M151.57,267.15c-0.17,0.73-0.09,0.75-0.74,0.93l0.2-0.73
		C150.95,267.12,150.79,266.99,151.57,267.15z M151.57,267.15v-0.19l0.22,0.15L151.57,267.15L151.57,267.15z M214.05,262.69
		c0-0.47,0.3-0.04,0.11,0C214.17,262.69,214.05,263.22,214.05,262.69L214.05,262.69z M151.94,266.6l-0.54-0.4
		c0.49-0.74,0.4-0.24,0.62-1.23l1.19-2.68c0.29-0.86,0.25-0.71,0.96-1.09c-0.24,1.03-0.54,1.92-0.93,2.79
		C152.61,265.42,152.27,265.2,151.94,266.6L151.94,266.6z M214.05,260.83h0.19v0.56h-0.19V260.83L214.05,260.83z M154.36,260.46
		c-0.15,0.56,0,0.41-0.56,0.56L154.36,260.46L154.36,260.46z M213.87,260.46l0.06,0.06C213.92,260.51,213.85,260.48,213.87,260.46
		L213.87,260.46z M154.36,260.46v-0.19l0.22,0.15L154.36,260.46L154.36,260.46z M154.92,259.9h-0.74c0.33-0.62,0.02-0.35,0.56-0.74
		c0.12,0.29,0.04,0.11,0.08,0.32L154.92,259.9L154.92,259.9z M139.48,267.9c0.36-1.54,3.01-5.99,3.97-7.93
		c0.13-0.25,0.2-0.43,0.3-0.63l0.13-0.24c0.28-0.44,0.03-0.07,0.25-0.31c-0.07,0.81-0.64,1.65-0.99,2.35
		c-0.43,0.86-0.75,1.5-1.18,2.36C141.51,264.4,139.93,267.57,139.48,267.9L139.48,267.9z M214.05,258.79l0.06,0.06
		C214.1,258.84,214.03,258.8,214.05,258.79L214.05,258.79z M144.13,258.79l0.1-0.4L144.13,258.79L144.13,258.79z M144.32,258.04
		l0.06,0.06C144.37,258.09,144.3,258.06,144.32,258.04L144.32,258.04z M214.24,256.93l0.06,0.06
		C214.29,256.98,214.22,256.94,214.24,256.93L214.24,256.93z M156.41,255.07c0,2.23-0.07,1.38-0.83,2.38
		c-0.32,0.42-0.24,0.48,0.09,0.97c-0.35,0.26-0.01,0.04-0.29,0.27c-0.29,0.24-0.05,0.14-0.45,0.29c-0.53-1.14,0.88-2.16,0.93-2.23
		c-0.46-0.12-0.48,0.25-0.21-0.36c0.2-0.45,0.42-0.27,0.42-0.68C156.06,255.68,155.71,255.55,156.41,255.07z M156.41,255.07
		c0.03-1.42,0.27-0.32,0.46-1.8c0.21-1.62,0.8-0.49,0.47-1.92h0.74c-0.17,0.65-0.16,0.27-0.4,0.9c-0.11,0.29-0.16,0.63-0.27,1.03
		l-0.36,1.12c-0.02,0.04-0.05,0.08-0.07,0.11c-0.02,0.03-0.06,0.08-0.08,0.11c-0.02,0.03-0.06,0.07-0.09,0.1
		C156.58,254.97,156.64,254.9,156.41,255.07L156.41,255.07z M146.74,251.16l0.06,0.06C146.79,251.21,146.72,251.18,146.74,251.16
		L146.74,251.16z M146.92,250.6l0.06,0.06C146.97,250.66,146.9,250.62,146.92,250.6L146.92,250.6z M147.29,250.05l-0.1,0.4
		L147.29,250.05L147.29,250.05z M146.18,250.05l0.06,0.06C146.23,250.1,146.16,250.06,146.18,250.05L146.18,250.05z M147.48,249.49
		c0,0.88,0,0.35-0.19,0.56C147.29,249.16,147.29,249.69,147.48,249.49L147.48,249.49z M146.74,248.56l0.06,0.06
		C146.79,248.61,146.72,248.58,146.74,248.56L146.74,248.56z M147.29,247.26l0.06,0.06C147.35,247.31,147.28,247.27,147.29,247.26
		L147.29,247.26z M166.26,245.21c0-0.47,0.3-0.04,0.11,0C166.37,245.21,166.26,245.74,166.26,245.21L166.26,245.21z M148.04,245.21
		l0.06,0.06C148.09,245.26,148.02,245.23,148.04,245.21L148.04,245.21z M166.45,244.65c0-0.47,0.3-0.04,0.11,0
		C166.56,244.65,166.45,245.18,166.45,244.65L166.45,244.65z M158.08,251.16c-0.25-0.14-0.21-0.1-0.56-0.19
		c1.06-1.59,0.22-1.13,0.81-2.17c0.52-0.9,0.72-0.7,1.08-1.89c0.35-1.17-0.12-1.25,0.63-2.53c0.01-0.02,0.05-0.07,0.07-0.09
		c0.01-0.02,0.04-0.07,0.05-0.09c0.01-0.02,0.02-0.07,0.03-0.09c0-0.01-0.02-0.28,0.03-0.49c0.18-0.75,0.26-0.15,0.29-1.2h0.37
		C160.75,243.86,158.77,249.85,158.08,251.16L158.08,251.16z M167.01,243.54h-0.19c0-0.8-0.04-0.82,0.37-1.3
		C167.14,242.82,167.01,242.9,167.01,243.54L167.01,243.54z M147.48,249.49c0.08-0.9,0.88-2.92,1.23-3.79l1.11-3.35
		c0.02-0.05,0.09-0.21,0.12-0.26l0.15-0.23c-0.02,0.85-1.92,6.69-2.43,7.43c-0.02,0.03-0.07,0.08-0.09,0.1
		C147.55,249.41,147.51,249.45,147.48,249.49L147.48,249.49z M160.87,241.86l0.06,0.06C160.92,241.92,160.85,241.88,160.87,241.86
		L160.87,241.86z M149.15,241.86l0.06,0.06C149.21,241.92,149.14,241.88,149.15,241.86L149.15,241.86z M150.08,241.86l0.1-0.4
		L150.08,241.86L150.08,241.86z M161.06,241.31l0.06,0.06C161.11,241.36,161.04,241.32,161.06,241.31L161.06,241.31z M167.56,241.49
		h-0.19c0-1.12-0.09-0.56,0.37-0.74C167.62,241.01,167.56,241.06,167.56,241.49L167.56,241.49z M142.09,224.01l-1.3,0.37
		C141.23,224,141.15,224.01,142.09,224.01z M142.09,224.01c0.25-0.19-0.39-0.19,0.56-0.19v0.19H142.09L142.09,224.01z
		 M147.48,221.59h1.49v0.19h-1.49V221.59L147.48,221.59z M139.11,221.41h1.86v0.19h-1.86V221.41L139.11,221.41z M195.09,216.95h0.19
		v1.49h-0.19V216.95L195.09,216.95z M216.66,217.87c0-0.47,0.3-0.04,0.11,0C216.77,217.88,216.66,218.4,216.66,217.87L216.66,217.87
		z M194.34,209.69l0.06,0.06C194.39,209.74,194.32,209.71,194.34,209.69L194.34,209.69z M195.46,207.09h0.19v0.74h-0.19V207.09
		L195.46,207.09z M195.46,204.86h0.19v0.56h-0.19V204.86L195.46,204.86z M198.8,203.93v1.12c-0.2-0.23,0.02,0.13-0.27-0.32
		C198.04,203.92,198.35,204.2,198.8,203.93L198.8,203.93z M195.27,202.81h0.19v0.74h-0.19V202.81L195.27,202.81z M198.43,195h0.19
		v7.62h-0.19V195L198.43,195z M195.27,196.12l0.06,0.06C195.32,196.17,195.25,196.14,195.27,196.12L195.27,196.12z M197.13,189.24
		h0.19v3.72h-0.19V189.24L197.13,189.24z M194.9,192.58l0.4,0.1L194.9,192.58z M194.9,192.58l-0.4-0.1L194.9,192.58L194.9,192.58z
		 M194.71,189.05l0.06,0.06C194.77,189.1,194.7,189.07,194.71,189.05L194.71,189.05z M194.71,187.94h0.19v0.56h-0.19V187.94
		L194.71,187.94z M137.25,187.56l-0.2-0.36l0.95-0.01v0.37H137.25L137.25,187.56z M147.85,181.98l1.49,0.37h-2.05L147.85,181.98
		L147.85,181.98z M145.06,181.61h1.12v0.19h-1.12V181.61L145.06,181.61z M203.27,180.5h0.19v1.12h-0.19V180.5L203.27,180.5z
		 M142.46,181.43c0.99,0,1.1,0.01,1.86,0.19c-0.19,0.36-0.14,0.76-0.83,0.49c-0.57-0.22-0.12-0.49-1.03-0.49V181.43L142.46,181.43z
		 M140.79,181.43h1.12v0.37c-0.44-0.1-0.55-0.19-1.12-0.19V181.43L140.79,181.43z M213.12,180.5h0.19v0.56h-0.19V180.5L213.12,180.5
		z M139.3,179.75l0.06,0.06C139.35,179.8,139.28,179.77,139.3,179.75z"/>
	<path class="st0" d="M337.16,286.87h-0.19l0.15-0.22L337.16,286.87L337.16,286.87z M343.11,283.7h0.19l-0.16,0.22L343.11,283.7
		L343.11,283.7z M342.92,282.22l0.06,0.06C342.97,282.27,342.9,282.23,342.92,282.22L342.92,282.22z M343.11,283.7
		c-0.09-1.08-0.7-1.39-0.93-2.23c-0.6,0.43-0.19,0.51,0.18,1.12L343.11,283.7L343.11,283.7z M351.85,280.91
		c0.42-0.58,0.14-0.58,0.56,0H351.85L351.85,280.91z M346.46,280.36l0.06,0.06C346.51,280.41,346.44,280.38,346.46,280.36
		L346.46,280.36z M343.29,280.17l0.21,0.36L343.29,280.17L343.29,280.17z M346.27,279.8l0.21,0.36L346.27,279.8L346.27,279.8z
		 M343.29,280.17l-0.21-0.36L343.29,280.17L343.29,280.17z M346.08,279.43l0.19,0.37L346.08,279.43L346.08,279.43z M351.29,279.43
		c-0.1-0.52,0.44,0.09,0.18,0.07C351.13,279.48,351.36,279.81,351.29,279.43L351.29,279.43z M350.17,279.24h-0.19l0.15-0.22
		L350.17,279.24L350.17,279.24z M279.14,278.68l-0.1,0.4L279.14,278.68L279.14,278.68z M342.74,278.68c0-0.47,0.3-0.04,0.11,0
		C342.85,278.68,342.74,279.21,342.74,278.68L342.74,278.68z M279.32,278.31l-0.19,0.37L279.32,278.31L279.32,278.31z
		 M340.13,278.31l0.06,0.06C340.18,278.36,340.11,278.33,340.13,278.31L340.13,278.31z M279.32,278.31v-0.19l0.22,0.16
		L279.32,278.31L279.32,278.31z M339.95,277.94h0.19l-0.16,0.22L339.95,277.94L339.95,277.94z M339.76,277.57l0.19,0.37
		L339.76,277.57L339.76,277.57z M345.15,277.01c0.15,0.17,0.07-0.06,0.3,0.44c0.1,0.21,0.18,0.49,0.26,0.67
		c0.19,0.46,0.32,0.68,0.37,1.3c-0.49-0.36-0.39-0.34-0.63-1.04C345.27,277.85,345.17,277.65,345.15,277.01L345.15,277.01z
		 M339.76,277.57h-0.19l0.15-0.22L339.76,277.57L339.76,277.57z M341.43,277.01c0.46,0.33,0.4,0.25,0.56,0.93
		C341.35,277.47,341.73,277.66,341.43,277.01L341.43,277.01z M345.15,277.01l-0.03-0.22l-0.16,0.22H345.15L345.15,277.01z
		 M280.44,275.71l0.06,0.06C280.49,275.76,280.42,275.73,280.44,275.71L280.44,275.71z M280.81,275.34v0.19l-0.22-0.15
		L280.81,275.34L280.81,275.34z M341.06,274.96c0.02-0.02,0.06,0.03,0.06,0.06L341.06,274.96L341.06,274.96z M337.9,264.55
		c1.27,0.34,0.74,2.33,1.61,4.34c0.31,0.72,0.56,0.64,0.62,1.42c-0.63-0.33-0.64-0.17-0.86-1L337.9,264.55L337.9,264.55z
		 M341.62,256.74c0.19,0.25,0.19-0.39,0.19,0.56h-0.19V256.74z M341.62,256.74c-0.02-0.04-0.07-0.13-0.08-0.11L341.62,256.74
		L341.62,256.74z M341.06,253.76h0.19v0.74h-0.19V253.76L341.06,253.76z M340.88,251.72h0.19v0.93h-0.19V251.72L340.88,251.72z
		 M335.11,250.42c0-0.46,0.3-0.04,0.11,0C335.22,250.42,335.11,250.94,335.11,250.42L335.11,250.42z M334.93,248.19
		c0-0.47,0.3-0.04,0.11,0C335.04,248.19,334.93,248.71,334.93,248.19L334.93,248.19z M334.74,247.63c0,0.53,0.11,0,0.11,0
		C335.04,247.58,334.74,247.16,334.74,247.63L334.74,247.63z M339.76,242.24h0.19c0,1.7,0.93,5.89,0.93,8.93h-0.37
		C340.51,248.1,339.76,245.29,339.76,242.24L339.76,242.24z M280.81,275.34l0.31-0.43c0.08-0.14,0.19-0.38,0.25-0.5l2.34-5.1
		l3.46-11.42c0.7-2.83,1.15-4.55,1.46-7.46c0.07-0.71,0.31-1.71,0.47-2.51c0.35-1.76,0.58-3.23,0.9-5.05
		c0.16-0.89,0.31-1.81,0.43-2.54c0.15-0.87,0.4-1.78,0.42-2.56l-2.37,9.9c-0.66,3.29-1.31,6.49-2.09,9.63
		c-0.8,3.19-1.6,6.22-2.53,9.37l-2.33,6.6C281.32,273.8,280.87,274.67,280.81,275.34L280.81,275.34z M339.58,237.59h0.19v0.56h-0.19
		V237.59L339.58,237.59z M290.85,236.66v0.74C290.39,237.06,290.22,237.04,290.85,236.66L290.85,236.66z M290.67,235.91
		c0-0.47,0.3-0.04,0.11,0C290.78,235.91,290.67,236.44,290.67,235.91L290.67,235.91z M290.85,234.61v-0.93h0.37
		c0,0.15,0.02,0.39-0.03,0.53C291.1,234.47,290.89,234.54,290.85,234.61L290.85,234.61z M334.55,230.89l0.75,11.34
		c0.14,3.83,0.75,10.71,1.37,14.44c0.12,0.75,0.14,1.08,0.33,1.73c0.26,0.87-0.03,0.51-0.03,1.51c0,1.7,0.74,1.76,0.74,2.79
		l-1.86-17.67c-0.05-0.73-0.13-0.38-0.19-1.11l-0.75-15.06c0.01-1.74,0-3.47,0-5.21h-0.19C334.74,226.3,334.55,228.28,334.55,230.89
		L334.55,230.89z M291.23,232.38v0.56h-0.19C291.04,231.95,291.04,232.66,291.23,232.38z M291.23,232.38l0.22-0.03l-0.22-0.15
		V232.38L291.23,232.38z M291.6,231.45h-0.37c0.03-1.57,0.56-3.69,0.56-5.39h0.19c0,1.18,0.02,1.92,0.15,2.84
		C292.27,229.91,291.68,230.44,291.6,231.45L291.6,231.45z M292.16,224.76h-0.19v-1.86C292.93,223.6,292.16,223.68,292.16,224.76
		L292.16,224.76z M292.16,220.66h0.19c0,0.83,0.19,0.73,0.19,1.67C291.68,222.26,292.16,222.76,292.16,220.66L292.16,220.66z
		 M292.71,220.11h-0.19c0-1.49,0-2.98,0-4.47c0-1.04,0.16-1.21,0.2-2.04c0.03-0.71-0.01-1.52-0.01-2.24h0.19
		C292.9,214.52,292.71,217.06,292.71,220.11L292.71,220.11z M275.98,196.3c0.2-0.76,0.07-0.56,2.05-0.56v0.19
		C277.22,195.93,277.13,196.3,275.98,196.3L275.98,196.3z M278.58,194.26l0.06,0.06C278.63,194.31,278.56,194.28,278.58,194.26
		L278.58,194.26z M271.89,190.17l0.06,0.06C271.94,190.22,271.87,190.19,271.89,190.17L271.89,190.17z M272.44,180.68
		c0.61-0.29,1.18-0.19,2.05-0.19c-0.17,0.65,0,0.56-1.49,0.56C272.48,181.05,272.66,180.97,272.44,180.68L272.44,180.68z
		 M280.81,173.24c0.12,0.14,0.13,0.07,0.32,0.42c0.18,0.34,0.15,0.32,0.24,0.69C280.92,174.03,280.87,173.99,280.81,173.24z
		 M280.81,173.24v-0.56h-0.19C280.63,173.64,280.62,173,280.81,173.24L280.81,173.24z M281.18,172.32h0.19l-0.16,0.22L281.18,172.32
		z M281.18,172.32c-0.16-0.68-0.1-0.6-0.56-0.93C280.78,172.06,280.73,171.98,281.18,172.32L281.18,172.32z M337.16,286.87
		c0.55,0.15,0.3,0.08,0.74,0.37c-0.22-0.93-0.69-1.01-0.93-2.05c0.66,0.44,1.09,1.09,1.46,1.33c0.44,0.28,0.26,0.03,0.73,0.38
		c0.76,0.57,1.11,1.55,2.09,1.81c0.04-1.76,0.57-0.34-1.11-3.17c-0.3-0.51-0.57-1-0.9-1.52c-0.54-0.85-0.41-0.74-0.41-2.01
		c0.03,0.03,0.07,0.05,0.08,0.1l1.27,1.33c0.29,0.36,0.28,0.31,0.58,0.72c0.35,0.49,0.3,0.48,0.86,0.63l0.21-0.74
		c0.47,0.32,1.3,1.59,1.46,2.22c0.39-0.29,0.47-0.53,0.74-0.93c0.43,0.29,0.73,0.59,1.3,0.74c-0.12-1.39-1.3-2.22-1.3-3.9
		c1.33,1.53,2.02,4.07,3.72,5.21c0.27-0.58-0.08-0.93-0.37-1.49c0.29-0.41,0.03-0.23,0.56-0.37c-0.06-0.78-0.21-0.61-0.37-1.3
		l1.53,1.44c0.54-0.18,0.22,0.45,0.33-0.51l1.08,0.97c0.77-1.54-1.52-4.98-1.63-5.44c-0.12-0.48-0.07-0.53-0.27-1.03
		c-0.22-0.55-0.24-0.34-0.3-1h0.37c0.32,1.35,1.44,2.46,2.27,3.5c0.43,0.54,0.97,1.48,1.83,1.71c-0.63-1.19-2.32-3.44-2.6-4.65
		c0.81,0.55,0.79,1.08,1.67,1.67c0.09,0.38,0.06,0.35,0.25,0.68c0,0,0.21,0.3,0.23,0.32c0.27,0.34,0.11,0.13,0.26,0.3l0.17-0.55
		c0.64,0.82,0.6,1.48,1.87,1.48l-0.38,0.74c0.51,0.05,0.52,0.09,0.94,0.19c-0.03-1.32-0.73-2.83-1.14-3.88
		c-1.13-2.85-2.81-4.69-4.04-8.42c-0.88-2.66-1.69-5.59-2.24-8.36l-2.99-19.88c-0.04-0.58,0.05-1.28,0-1.86
		c-0.05-0.7-0.18-0.61-0.19-1.48c-0.04-2.7-0.37-5.72-0.36-8.38c0.01-2.36,0-4.71,0-7.07c0-2.53,0.2-4.37,0.19-6.88l0.39-6.68
		c0.61-5.41,1.64-14.35,3.35-19.52c0.52-1.56,0.16-3.24,0.16-4.86c-0.5-0.04-0.51-0.09-0.93-0.19c0.09-1.04,0.26-0.39,0-1.49
		c-0.63,0.05-0.68,0.14-1.12,0.37l-0.21-0.74c-0.15,0.22-0.1-0.22-0.16,0.55c-0.81-0.07-1.26-0.68-1.67-1.3
		c-0.48,0.13-0.21-0.07-0.37,0.37l-0.37-0.56c-0.76,0.2-1.17,0.93-1.86,1.3c0.06-0.74,0.31-1.12,0.37-1.86
		c-0.58-0.13-0.54-0.24-1.12-0.37c-0.33,0.22-0.63,0.41-0.84,0.83c-0.4,0.77,0.08,0.82-1.01,0.85c0-0.83,0.1-1.08-0.19-1.67
		c-0.52,0.38-0.62,0.9-0.93,1.49h-0.93c-0.6-1.14-2.2-2.91-2.42-3.72c-0.41,0.1-1.75,0.67-2.17,0.49c-0.5-0.22,0.13-0.05,0.13-2.16
		c-2.02,0-0.83-0.37-3.61,0.11l-12.39-0.11c-5.69,0-10.81,0.19-16.55,0.19c-0.23-2.72-1.83-7.68-4.19-9.2
		c-0.71-0.46-1.46-0.28-2.51-0.28c-2.24,0.01-1.63-1.12-4.27-1.12c0,0.68-0.1,1.58,0.14,2.09l0.98,0.88
		c0.07,0.79,0.31,0.88,0.37,1.67c-2.12-0.57-2.69-3.84-4.39-4.35c-1.04-0.31-0.56,0.15-0.81-0.49h-0.56
		c-0.24,0.64-0.12,0.32-1.88,0.02c-1.19-0.21-1.53-0.39-0.96,0.79c0.5,1.05,0.06,0.81-0.98,0.61c-1.9-0.38-0.74-0.3-1.75-1.04
		c-0.38,0.78-0.04,1.22,0.15,1.9c0.19,0.71,0.32,1.25,0.59,1.82c-0.62-0.22-0.64-0.91-0.99-1.61c-0.32-0.64-0.56-1.16-0.87-1.74
		c-3.88,0-2.91,1.55-2.45,3.38c0.13,0.53,0.2,0.65,0.31,1.19c0.22,1.08-0.03,0.85,0.36,2.23c0.29,1,0.58,2.45,1.04,3.42
		c-0.51,0.12-0.98,0.25-1.49,0.37c-0.17-0.34-0.14-0.23-0.19-0.74c-0.25,0.13-0.35,0.17-0.59,0.34c-0.45,0.34-0.14,0.3-0.72,0.4
		c-0.99,0.17-1.36-0.04-1.86-0.37l-4.28,0.56c0.1,0.42,0.14,0.43,0.19,0.93c0.49-0.04,1.13-0.2,1.49-0.37
		c0.11,0.49,0.17,0.55,0.37,0.93c0.93,0,1.14,0.19,2.23,0.19v0.19c-0.79,0-0.87,0.19-1.86,0.19v1.3c1.3,0,1.5-0.26,2.05,0.56
		c-0.81,0.39-2.12,0.52-2.98,0.93c0.17,0.71,0.19,0.74,0.19,1.67c0.9,0.48,0.79,0.39,1.15,1.27c0.28,0.69,0.84,0.59,1.83,0.59
		c0.15,0.66,0.27,1.11-0.45,1.4c-0.99,0.4-0.73-0.19-1.4,0.83c1.24,0,1.48,0.16,2.43,0.35c0.69,0.14,0.58,0.13,1.1,0.39l0.83,0.48
		c0.02,0.02,0.07,0.06,0.1,0.09c-1.29,0-1.89,0.19-2.98,0.19c-0.49,0.93-0.65,0.97-0.56,2.05l3.53-0.19
		c2.18-0.16,2.75-0.24,2.98,0.74c-0.51,0-1.18-0.04-1.67,0c-0.71,0.05-0.59,0.19-1.49,0.19c0.09,1.09,0.67,0.86,0.19,1.86
		c1.13,0,1-0.17,1.49,0.56l-0.74,0.74c0.6,0.14,1.15,0.37,1.86,0.37v0.19c-0.78,0-0.75-0.08-1.3,0.19c0.62,0.84,2.42,1.18,3.35,1.67
		c0,2.27,0.19,3.88,0.29,6.02c0.03,0.75-0.47,1-0.18,2.61c0.23,1.26,0.18,4.9,0.08,6.25c-0.05,0.71-0.16,0.49-0.19,1.29
		c-0.02,0.53,0.05,1.16,0.01,1.68c-0.06,0.8-0.35,1.94-0.38,2.78c-0.15,3.67,0.13,4.61-0.75,8.92c-0.21,1.01-0.27,1.59-0.36,2.8
		c-0.33,4.76-1.37,9.56-2.24,13.94l-2.4,10.24c-0.43,1.64-1.07,3.23-1.49,4.84c-0.92,3.51-2.41,7.09-3.97,10.35
		c-0.87,1.84-1.92,3.75-2.51,5.67c-0.25,0.82-0.3,1.9-0.58,2.58c-0.39,0.92-1.38,2.15-1.56,3.19c-0.12,0.69,0.26-0.34-0.01,0.47
		c-0.26,0.78,0.02,0.24-0.48,0.42c0.36,0.54,0.38,0.25,0.56,0.93c0.88,0,0.83,0.03,1.49,0.19l-0.31,0.25
		c-0.02,0.02-0.08,0.06-0.1,0.08c-0.23,0.22-0.19,0.19-0.33,0.41l0.7,0.79c-0.11-0.75-0.26-0.57,0.51-0.87
		c1.22-0.48,1.24-0.53,2-1.54c0.31-0.41,0.48-0.71,0.88-0.98c0.29,1.24,0.55,0.45,0.15,2.01c-0.16,0.62-0.25,1.51-0.52,2.09
		c0.73-0.02,0.44,0.05,0.93-0.19c0.02,0.82,0.13,0.58,0.19,1.3c1.3-0.3,2.08-1.38,3.35-1.67c0,1.1-0.38,1.35-0.74,2.05
		c1.68-0.45,4.28-5.41,5.08-6.82c0.26-0.46,0.33-0.8,0.87-0.99c-0.35,0.65-1.88,3.61-2.01,4.31l-0.22,2.01
		c0.64-0.17,0.57-0.1,0.74-0.74c0.94,0,0.96-0.13,1.67-0.19c-0.07,0.89-0.41,0.94-0.01,1.87c0.24,0.55,0.6,0.88,0.75,1.48
		c0.95-0.25,1.4-1.67,2.23-2.23c0,0.73-0.06,0.75-0.19,1.3c0.81-0.07,0.72-0.26,1.09-0.77c0.48-0.67,1.75-2.88,2.45-3.13
		c-0.33,0.69-0.04,0.98-0.37,1.67l1.52-1.64c2.87-3.63,5.71-11.52,7.46-15.59c1.01-2.35,1.71-5.04,2.36-7.5
		c1.17-4.42,2.55-8.61,3.46-13.09c0.76-3.76,1.3-7.52,1.92-11.29c0.32-1.96,0.54-3.67,0.78-5.73l0.92-8.94
		c0.02-0.54-0.02-1.14-0.01-1.69c0.01-0.87,0.14-0.78,0.19-1.48c0.07-0.98,0-2.32,0-3.35c0-1.33,0.19-2.06,0.19-3.16
		c0.01-4.57,0.18-8.56,0.18-13.02h20.83c0,2.55-1.34,8.4-1.49,11.9c-0.13,3.17-0.76,6.09-0.75,9.3c0,0.51,0.04,1.19,0,1.68
		c-0.05,0.7-0.18,0.61-0.19,1.48c-0.04,2.31-0.22,11.67,0.08,13.32l1,12.58c0.31,2.06,0.45,4.02,0.77,5.93
		c0.61,3.72,1.15,7.66,2.07,11.32c0.9,3.61,1.55,7.19,2.72,10.67l1.99,4.7c0.87,1.75,2.72,4.64,4.32,5.72
		c0.91,0.61,1.31,0.94,2.5,0.66c-0.09-1.03-0.35-0.69-0.56-1.49c0.68-0.18,0.39-0.2,0.93-0.56
		C337.25,287.37,337.2,287.37,337.16,286.87z"/>
	<path class="st0" d="M410.61,283.89c-0.91,0.63-1.91,0.56-2.98,0.56C408.23,283.93,409.67,283.89,410.61,283.89z M410.61,283.89
		l0.22-0.03l-0.22-0.15V283.89L410.61,283.89z M412.84,276.64l0.06,0.06C412.89,276.69,412.82,276.66,412.84,276.64L412.84,276.64z
		 M418.24,274.78h-0.56C418.09,274.2,417.82,274.2,418.24,274.78L418.24,274.78z M423.05,273.11l0.58-0.01
		c-0.07,0.86,0.2,0.33-0.37,0.74L423.05,273.11L423.05,273.11z M418.98,272.36c0-0.47,0.3-0.04,0.11,0
		C419.09,272.36,418.98,272.89,418.98,272.36L418.98,272.36z M424.19,271.24c0,0.73-0.06,0.75-0.19,1.3l-0.54-0.4l0.64-0.8
		C424.12,271.33,424.16,271.28,424.19,271.24L424.19,271.24z M419.72,270.5c-0.18,0.75-0.05,0.56-0.56,0.74
		C419.5,270.62,419.18,270.9,419.72,270.5z M419.72,270.5l0.1-0.4L419.72,270.5L419.72,270.5z M416.38,275.52
		c0.12-1.42,2.42-5.45,2.42-8c-0.57,0.42-0.22-0.03-0.49,0.81l-2.11,5.89l-1.12-0.19c-0.08,1.01-1.28,3.25-1.3,3.35
		c0.49,0.11,0.55,0.17,0.93,0.37c0.26-0.49,0.15-0.36,0.52-0.79c0.41-0.47,0.26-0.12,0.41-0.7c-0.44,0.23-0.48,0.32-1.12,0.37
		C414.73,275.85,415.5,275.6,416.38,275.52L416.38,275.52z M407.82,267.53l0.06,0.06C407.87,267.58,407.8,267.54,407.82,267.53
		L407.82,267.53z M406.71,267.34l0.06,0.06C406.76,267.39,406.69,267.36,406.71,267.34L406.71,267.34z M421.95,267.15
		c0.07-0.78,0.37-0.99,0.37-1.67h0.19C422.51,266.33,422.46,266.8,421.95,267.15L421.95,267.15z M357.24,258.97
		c0.85,0.98,1.12,4.16,1.12,5.39h-0.19C358.17,263.36,357.24,262.55,357.24,258.97L357.24,258.97z M409.87,261.76
		c-0.34-1.44,0.74-2.19,0.74-3.53l-0.35,2.81C410.07,261.91,410.5,261.3,409.87,261.76L409.87,261.76z M411.54,254.14l0.06,0.06
		C411.59,254.19,411.52,254.16,411.54,254.14L411.54,254.14z M421.4,248.74v-1.67h0.19c0,1,0.19,0.17,0.19,0.93
		C421.77,248.31,421.61,248.65,421.4,248.74L421.4,248.74z M421.58,246.33v-1.12c0.17,0.09,0.37,0.12,0.37,0.37
		C421.95,245.89,421.79,246.23,421.58,246.33L421.58,246.33z M373.98,245.4l0.18-1.12c0.1-0.27,0.1-0.23,0.19-0.37
		c0.21,0.9,0.19,1.29,0.19,2.42c-0.03-0.03-0.07-0.13-0.09-0.1L373.98,245.4L373.98,245.4z M421.58,243.91
		c0-0.83,0.35-0.91,0.37-0.93v1.49C421.64,244.25,421.58,244.44,421.58,243.91L421.58,243.91z M373.79,236.28l0.19,7.06
		C373.57,242.57,373.79,237.18,373.79,236.28L373.79,236.28z M421.77,242.24l0.06,0.06C421.82,242.29,421.75,242.25,421.77,242.24
		L421.77,242.24z M377.14,233.87l0.19,3.72c0.09,1.18-0.14,2.74,0.04,3.87c0.3,1.94,0.42,6.14,0.85,9.01l0.68,5.09
		c0.22,1.26,0.3,2.14,0.52,3.39c0.14,0.8,0.68,1.9,0.89,2.83c-0.96-0.08-1.07-0.57-1.27-1.34c-0.33-1.29-1.11-4.83-1.89-5.73
		c0.02,0.84,0.37,2.78,0.56,3.54c0.44,1.77,1.14,2.87,0.75,3.35c0.27,0.13-0.33,0.21,0.56,0c0.08,1.02,0.48,2.32,1.12,2.79
		c-0.08-0.94-0.48-1.29-0.56-2.23c1.59,0.04,0.89,0.78,1.86,2.23c1.35,0,1.87,0.19,3.16,0.19c2.25-0.01,2.14,0.18,3.15,0.19
		c0.52,0.01,1.18,0.02,1.69,0c0.82-0.03,0.65-0.17,1.47-0.2l14.7-1.67c0.06-0.74,0.3-0.94,0.53-1.51c0.81-2.03,0.96-2.19,1.35-4.6
		l1.65-14.34c0.17-2.43,0.56-4.67,0.56-7.44c0-3.84,0.09-5.42-0.19-9.11c-0.05-0.7,0.05-1.53,0-2.23l-1.04-9.38
		c-0.44-2.5-0.75-4.68-1.3-7.06l-1.75-6.62c-2.34,0-1.91-0.15-2.97-0.19l-8.56-0.37c-1.45,0-2.29,0.2-3.53,0.19
		c-1.21-0.01-2.17,0.07-3.33,0.2c-0.62,0.07-0.77,0.18-1.69,0.17c-1.89-0.02-2.82,0.61-4.46,0.74c-0.57,2.45-1.09,4.98-1.51,7.6
		c-0.2,1.28-0.41,2.58-0.65,4C377.87,217.94,377.14,228.36,377.14,233.87L377.14,233.87z M373.79,234.98h0.19v0.74h-0.19V234.98
		L373.79,234.98z M422.33,230.71c0.19-0.19,0.67,0.27,0.21,0.1C422.54,230.8,422.01,231.02,422.33,230.71L422.33,230.71z
		 M364.12,226.61c0.33-0.62,0.02-0.35,0.56-0.74C364.6,226.86,364.81,226.3,364.12,226.61L364.12,226.61z M364.87,224.38h-0.19
		c0-1.07,0.19-1.41,0.19-2.6C365.52,222.25,364.87,223.11,364.87,224.38L364.87,224.38z M365.05,221.04h0.19l-0.15,0.22
		L365.05,221.04z M365.05,221.04l-0.03-0.22l-0.16,0.22H365.05L365.05,221.04z M421.77,220.29h0.19v0.56h-0.19V220.29L421.77,220.29
		z M365.05,219.92l0.06,0.06C365.1,219.97,365.03,219.94,365.05,219.92L365.05,219.92z M373.61,219.18h-0.37
		c0.15-0.66,0.19-0.61,0.19-1.49h0.37C373.73,218.41,373.61,218.29,373.61,219.18L373.61,219.18z M366.17,212.67
		c0-0.47,0.3-0.04,0.11,0C366.28,212.67,366.17,213.19,366.17,212.67L366.17,212.67z M360.96,209.13c0-0.47,0.3-0.04,0.11,0
		C361.07,209.14,360.96,209.66,360.96,209.13L360.96,209.13z M429.95,208.58c0-0.47,0.3-0.04,0.11,0
		C430.06,208.58,429.95,209.1,429.95,208.58L429.95,208.58z M429.77,207.46c0-0.47,0.3-0.04,0.11,0
		C429.88,207.46,429.77,207.99,429.77,207.46L429.77,207.46z M361.33,206.72h0.19v0.56h-0.19V206.72L361.33,206.72z M407.64,205.42
		l0.06,0.06C407.69,205.47,407.62,205.43,407.64,205.42L407.64,205.42z M407.26,204.3c0-0.47,0.3-0.04,0.11,0
		C407.38,204.3,407.26,204.83,407.26,204.3L407.26,204.3z M362.08,203.56c0-0.47,0.3-0.04,0.11,0
		C362.19,203.56,362.08,204.08,362.08,203.56L362.08,203.56z M376.02,203.37v0.19l-0.22-0.15L376.02,203.37z M376.02,203.37l0.1-0.4
		L376.02,203.37L376.02,203.37z M406.52,201.7c0.12,0.14,0.12,0.05,0.24,0.31c0.17,0.38,0.05,0.09,0.13,0.43
		C406.32,202.02,406.59,202.56,406.52,201.7L406.52,201.7z M406.33,201.32l0.19,0.37L406.33,201.32z M406.33,201.32h-0.19l0.15-0.22
		L406.33,201.32L406.33,201.32z M369.14,192.03c0-0.47,0.3-0.04,0.11,0C369.25,192.03,369.14,192.55,369.14,192.03L369.14,192.03z
		 M423.07,190.35c0-0.47,0.3-0.04,0.11,0C423.18,190.35,423.07,190.88,423.07,190.35L423.07,190.35z M369.7,190.91v-0.74h0.74v0.37
		C370.06,190.64,369.93,190.68,369.7,190.91L369.7,190.91z M367.84,196.12l1.3-7.07c-0.97,0.71-2.02,6.2-1.88,6.89
		c0.77,3.92,0.37,3.7-0.36,7.42c-0.25,1.28-0.5,2.52-0.77,3.87c-0.47,2.33-1.07,5.42-1.07,8.23c0,2.16,0.06,0.71,0.37,1.86
		c0.55-0.4,0.68-2.93,0.74-3.72c-0.42-0.17-0.46,0.12-0.39-0.92c0.06-0.91,0.5-1.5,0.2-2.8c0.13-0.19,0.14-0.22,0.31-0.45
		c0.69-0.89,0.01-0.25,0.36-1.29c0.13-0.38,0.33-0.51,0.41-0.9c0.22-1.1-0.36-2.33,0.49-4.15c0.53-1.13,0.13-0.64,0.43-1.43
		c0.89-2.32,0.45-1.78,0.82-4.39c0.02-0.16,0.12-0.77,0.19-1.12c0.06-0.3,0.22-0.71,0.29-1.01c0.31-1.34,0.14-1.02,0.04-2.19
		L367.84,196.12L367.84,196.12z M369.89,189.24c0.13-0.54-0.02-0.27,0.37-0.56C370.08,189.42,369.9,189.22,369.89,189.24
		L369.89,189.24z M368.77,180.87c0,1.43-0.13,2.19-1.3,2.98c0.36,0.54,0.38,0.25,0.56,0.93c-0.54,0.13-0.27-0.02-0.56,0.37
		c0.73,0.06,0.87,0.19,1.86,0.19c-0.27,0.99-1.22,1.24-2.05,1.67c0.27,1.14,0.44,0.94,0.19,2.05l0.6,0.52
		c-0.22,0.82-0.58,1.78-0.6,2.64c-0.9-0.07-0.86-0.37-1.67-0.56c0-0.93-0.17-0.83-0.19-1.67h-0.37c-0.03,1.57-0.78,3.49-1.15,4.98
		l-0.93,3.72c-0.17,0.72,0.01,0.77-0.52,1.15c-0.34-0.82,1.12-5.78,1.12-6.88c0-0.57-0.4-0.52-0.36-1.28
		c0.03-0.75,0.2-1.72-0.01-2.62c-0.35,0.4-0.64,1.55-0.81,2.16c-0.33,1.12-0.02,1.53-1.42,1.56v-1.49l-0.72-0.59l-1.74,6.69
		c-0.17,0.69-0.36,1.44-0.56,2.23l-2.12,9.22l-2.12,20.38c0,1.07,0.22,1.38,0.2,2.23c-0.02,0.75-0.12,0.57-0.19,1.13
		c-0.18,1.51-0.01,3.12-0.01,4.64l0.33,6.36c0.16,1.01-0.06,2.28,0.05,3.29l0.17,3.18c0.05,0.7,0.17,0.6,0.19,1.48
		c0.04,2.21,0.58,5.41,0.97,7.4c0.41,2.06,1.22,6.01,2.12,7.92l0.85,1.57c0.15,0.38,0.12,0.25,0.32,0.61
		c0.45,0.77,0.41,1.55,0.87,2.48c0.54,1.1,2.16,2.72,3.2,3.5c0.79,0.6,1.13,0.88,2.08,1.08c0.02,0.73-0.05,0.44,0.19,0.93l4.46-0.56
		c0.5,0,0.51,0.09,0.93,0.19c-0.31,0.59-0.55,1.76-1.04,2.12c-0.24,0.17-0.53,0.23-0.82,0.3v0.37c0.56,0.15,0.41,0,0.56,0.56
		c-1.03,0-1.1,0.19-2.05,0.19l0.21,1.11c0.76-0.37,0.57,0,1.09,0.38c1.05-0.09,0.31-0.17,1.37,0.11c0.61,0.16,1.14,0.27,1.79,0.27
		c-0.08,0.99-0.72,1.72-0.93,2.6c0.88,0.02,2.07,0.38,2.83,0.51c0.62,0.1,0.89,0.11,1.44,0.24c0.49,0.11,0.63,0.41,1.08,0.44
		c0.48,0.03,0.81-0.27,1.38,0.07c0.56,0.33,0.08,0.53,1.06,0.61c0.5,0.04,1.16-0.08,1.65,0.02c0.61,0.13,0.36,0.32,1.33,0.35
		c0.55,0.02,1.09-0.05,1.64,0.03c0.25,0.04,1.13,0.26,1.38,0.3c1.07,0.16,2.2-0.09,3.27,0.08c0.55,0.09,0.7,0.13,1.53,0.14
		c0.88,0.01,0.78,0.14,1.48,0.19l4.84-0.18c0.82-0.03,0.65-0.17,1.47-0.2l12.17-1.22c4.47-0.77,4.44-0.65,6.43-3.61
		c-1.31,0.11-2.59,1.01-3.9,1.12c0.58-0.79,2.05-0.93,2.91-1.36c0.42-0.21,1.04-0.45,1.32-0.73c0.31-0.3,0.68-0.97,0.79-1.44
		c-0.92,0.21-2.39,0.72-3.35,0.74c0.03-0.03,0.08-0.12,0.1-0.09l0.45-0.29c0.22-0.1,0.51-0.19,0.82-0.3
		c0.61-0.2,0.96-0.39,1.61-0.44c-0.08-0.87,0.28-0.46-0.74-0.37c0.92-1.26,1.33-0.51,1.67-2.79c0.17-1.18,0.26-0.74,0.79-1.44
		c0.39-0.52,0.35-1,0.73-1.5c1.11-1.47,1.94-4.59,2.39-6.54c0.7,0.51-0.11,1.91-0.19,2.79c0.7-0.19,0.47-0.36,1.3-0.56
		c-0.24,1.05-0.68,2.15-1.05,3.23c-0.76,2.29-1.95,3.65,0.3,3.84c0.42-0.63,0.95-1.62,1.51-1.98l0.23-0.18
		c0.47-0.4,0.91-0.44,1.6-0.44c0.08-0.94,3.62-12.6,3.91-13.2h-0.93c0-0.92,0.54-1.53,1.3-2.05c-0.4-1.72-0.18-1.48,0.22-3.12
		c1.04-4.18,1.3-6.12,2.09-10.19l0.48-3.61c0.03-0.93,0.09-1.2,0.17-1.88l0.39-10.03c0-2.69-0.06-5.48-0.36-8.01
		c-0.06-0.52,0.03-1.14-0.01-1.66c-0.05-0.7-0.18-0.6-0.19-1.48c-0.01-0.62,0.04-1-0.07-1.61c-0.12-0.67-0.1-0.84-0.1-1.57
		l-0.49-4.53c-0.95-5.61-1.81-11.18-4.05-16.4l-1.28-2.07c-2.63-3.43-2.91-2.25-4.7-3.67c-0.71-0.56,0.16-0.48-1.38-0.48
		c0.72-1.08,1.27-1.21-0.15-2.27c-0.63-0.47-1.12-0.34-1.53-0.89c0.59,0,1.01,0,1.49-0.37c0.03-0.02,0.08-0.07,0.1-0.09
		s0.06-0.06,0.09-0.1c-0.22-0.83-1.03-1.16-1.75-1.6c-0.18-0.11-0.34-0.18-0.48-0.26c-0.6-0.37-0.93-0.75-1.68-0.93l0.74-0.93
		c-1.62-0.04-3.57-1.09-5.17-1.52c-9.84-2.65-23.28-3.31-33.49-1.25c-0.78,0.16-1.75,0.36-2.48,0.5l-3.56,1.09
		c-0.55,0.19-0.71,0.27-1.2,0.47C370.34,180.24,369.42,180.52,368.77,180.87z"/>
	<path class="st0" d="M92.62,288.35v0.19l-0.22-0.15L92.62,288.35z M92.62,288.35l0.22-0.03l-0.22-0.15V288.35L92.62,288.35z
		 M93.74,287.61c0.19-0.19,0.67,0.27,0.21,0.1C93.95,287.71,93.43,287.92,93.74,287.61L93.74,287.61z M107.13,270.5v0.19l-0.22-0.16
		L107.13,270.5L107.13,270.5z M107.31,270.32l-0.19,0.19L107.31,270.32z M107.31,270.32c0.17-0.26,1.64-1.9,1.86-2.05
		c-0.13,0.49-0.37,0.81-0.69,1.17C108.1,269.85,107.89,270.16,107.31,270.32L107.31,270.32z M109.17,268.27l0.22-0.03l-0.22-0.15
		V268.27L109.17,268.27z M111.03,264.74l0.06,0.06C111.08,264.79,111.01,264.75,111.03,264.74L111.03,264.74z M111.96,263.81v0.19
		l-0.22-0.16L111.96,263.81z M111.96,263.81c0.7-0.47,1.19-1.1,1.81-1.72c0.75-0.75,0.9-0.96,1.5-1.85c0.5-0.75,0.87-1.41,1.38-2.16
		c0.38-0.57,1.1-1.45,1.26-2.08l-3.13,3.75C114.05,260.68,112.23,262.67,111.96,263.81L111.96,263.81z M117.91,256v-0.19l0.22,0.16
		L117.91,256L117.91,256z M131.67,232.75h-0.19c0-1.12-0.09-0.56,0.37-0.74C131.73,232.27,131.67,232.32,131.67,232.75
		L131.67,232.75z M115.5,228.29h0.56v0.19h-0.56V228.29L115.5,228.29z M117.17,225.5l0.06,0.06
		C117.22,225.55,117.15,225.52,117.17,225.5L117.17,225.5z M111.22,225.5c2,0,3.26-0.32,4.28-0.38c0.7-0.04,0.89,0.14,1.48,0.19
		v0.37c-2.7,0.22-0.84,0.56-4.29,0.2C111.67,225.78,111.7,226.16,111.22,225.5L111.22,225.5z M113.08,223.08
		c0.33-0.45,0.7-0.54,1.48-0.57c0.66-0.02,1.38,0.01,2.05,0.01v0.37c-0.93,0-0.83,0.16-1.67,0.19
		C114.35,223.11,113.68,223.08,113.08,223.08L113.08,223.08z M119.03,222.34c0,1.09-1,0.63-1.49,0.37c0.25-0.37,0.18-0.43,0.72-0.61
		C118.47,222.02,119.03,221.86,119.03,222.34L119.03,222.34z M80.54,201.51c-0.02,1.03-0.94,2.41-1.52,3.31
		c-0.08,0.12-0.21,0.32-0.3,0.45l-0.41,0.52C78.41,204.47,79.74,202.1,80.54,201.51z M80.54,201.51l0.22-0.03l-0.22-0.16V201.51
		L80.54,201.51z M87.04,200.21l-1.15,1.46c-1.91,2.53-3.74,6.45-5.44,9.26c-0.66,1.1-0.95,1.18-0.7,1.43
		C80.91,213.5,86.42,202.91,87.04,200.21L87.04,200.21z M74.03,198.72h0.74v0.19h-0.74V198.72L74.03,198.72z M72.54,198.35
		c0.55,0.13,0.57,0.19,1.3,0.19v0.19h-1.3V198.35L72.54,198.35z M73.65,180.31l4.28,0.19c0.65,0.05,0.57,0.19,1.3,0.19v0.19
		c-1.5,0-3.5,0.3-5.58-0.19V180.31L73.65,180.31z M96.16,173.99c-0.5,0-0.51-0.09-0.93-0.19c0-2.18,1.15-3.93-1.14-4.81
		c-0.37-0.14-0.45-0.12-0.76-0.36c-1.19-0.89-0.54-0.64-2.22-0.07c-1.33,0.45-1.13,1.43-1.45,2.64c-0.27,1.03-0.39,0.69-0.9,1.34
		c-0.85,1.09-0.87,3.66-1.2,5.12c-0.12,0.55-0.37,1.09-0.52,1.71c-1.5,0-6.13-0.04-7.36-0.26c-1.21-0.22-2.37-0.02-3.61-0.11
		c-0.71-0.05-0.73-0.18-1.67-0.19c-2.82-0.01-5.43-0.96-8.17-1.5c-1.08-0.21-1.58-1.04-2.65-0.78c-0.94,0.23-2.29,0.61-3.31,0.61
		l0.19,1.12c-0.49,0.26-0.81,0.48-1.3,0.74c0,3.02,1.32,5.06,2.79,7.25c-0.65,1.32,0.13,3.4,0.75,4.46c0.21,0.35,0.45,0.77,0.7,1.16
		l1.45,2.08c0.74,1.08,1.46,2.29,2.35,3.23c1.96,2.07,5.33,2.61,8.14,2.83c1.1,0.08,2.38,0.15,3.34,0.38
		c-0.09,1.13-1.4,2.96-2.01,3.94c-2.31,3.73-4.58,7.53-7.1,11.12c-0.25,0.36-0.35,0.42-0.64,0.85c-1.8,2.67-3.8,5.24-6.02,7.56
		c-1.22,1.27-0.52,1.02-2.2,2.26c-0.9,0.66-1.41,1.75-2.3,2.35l1.67,1.86c0.48,0,1.03-0.56,1.86-0.56c1.07,0,1,0.76,2.07,0.41
		c0.92-0.3,1.15-0.77,2.02-0.97c0,2.17-2.98,2.87-2.29,3.56c0.23,0.23,0.78-0.26,1.36-0.4c-0.39,0.58-0.94,1.13-1.3,1.67
		c0.32,0.48,0.84,0.71,1.3,1.12c1.24-0.65,1.94-1.34,3.72-1.49c-0.32,1.2-1.73,1.4-2.05,2.6c0.81,0.07,0.91,0.05,0.93,0.93
		c0.71-0.17,1.23-0.6,1.86-0.93c1.2,0.8,1.94,1.93,3.71,1.87c1.7-0.06,3.17-0.57,5.77-0.57c0.52,0,0.34,0.08,0.56,0.37
		c-1.7,0-2.83,0.08-3.16,1.49l0.74,0.19c-0.84,0.2-1.76,0.36-2.6,0.56c0,2.2-0.1,1.57,1.79,2.12c1.5,0.44,1.16,0.2,2.64-0.3
		l12.3-1.09c0.77-0.03,1.41,0.07,2.16-0.07c3.69-0.66,9.84,0.38,13.24-0.15c1.43-0.23,2.53-0.1,3.57,0.6
		c-2.08,3.1-4.02,6.18-6.27,9.16l-3.54,4.27c-5.29,6.27-11.76,11.96-18.89,16.07c-0.87,0.5-1.38,1.2-2.17,1.73
		c0.29,0.41,0.03,0.23,0.56,0.37l-0.22,1.48c0.66,0.15,0.99,0.4,1.71,0.56c-0.28,1.2-1.1,2.26-1.67,3.35
		c2.12,0.49,1.39,0.92,3.03,0.06c0.91-0.48,1.92-1.13,2.92-1.36c-0.28,1.06-1.57,1.59-2.19,2.46c-0.57,0.8,0.19-0.13-0.17,0.46
		c-0.33,0.54-0.54-0.01-0.8,0.98c0.51-0.12,0.98-0.25,1.49-0.37c-0.42,0.63-1.11,1.15-1.3,1.86c2.71,0.63,4.03-0.91,6.51-1.49
		c-1.25,1.87-4.13,2.58-5.39,4.46c2.37,0.2,1.96,0.89,4.54-0.85l10.15-6.59c3.27-2.3,3.72-3.39,4.53-4.02
		c0.39-0.3,0.97-0.69,1.42-0.81c-0.62,1.17-1.72,1.99-2.65,2.93c-0.47,0.47-0.67,0.52-1.12,0.93c-0.45,0.41-0.52,0.47-1.02,0.84
		l-5.52,4.15c-0.85,0.64-4.68,3.87-5.14,4.53c-0.23,0.33-0.51,0.95-0.55,1.49l1.12-0.19c-0.15,0.63-0.39,0.96-0.56,1.67
		c1.13,0,1.36-0.19,2.42-0.19c0.11,0.49,0.17,0.55,0.37,0.93c0.41-0.09,0.76-0.14,1.23-0.26c0.8-0.2,3.14-1.51,3.94-2.01
		c0.36-0.23,0.63-0.33,0.96-0.52c0.61-0.35,1.21-0.74,1.83-1.15l4.27-3.17c0.31-0.26,0.44-0.48,0.76-0.73l2.53-2.12
		c0.44-0.33,0.43-0.29,0.81-0.68l7.72-7.34c0.4-0.4,0.35-0.43,0.66-0.83l3.49-4.13c0.47-0.61,0.84-1.08,1.27-1.71
		c2.47-3.66,4.87-7.38,6.93-11.29c3.39-6.42,9.59-17.53,4.01-23.97c-0.79-0.91-1.32-2.34-2.65-2.37c0.06,0.74,0.31,1.12,0.37,1.86
		c-0.94-0.63-0.99-1.02-1.3-2.23c-0.58-2.27-3.28-5.19-5.77-5.39c-1.17,1.75-1.76,1.84-2.06-0.54c-0.14-1.09-0.45-1.19-0.91-1.88
		l-0.79,0.7c-2.29-1.44-2.11-1.45-5.35-1.45c-1.41,0-2.03-0.19-3.35-0.19l-13.95,0c-1.82,0-1.82,0.22-2.98-0.56
		c2.85-4.26,5.12-8.34,7.31-12.96c0.75-1.58,1.59-3.19,1.99-4.89c5.39,0,10.79-0.01,16.18,0c1.58,0,2.37-0.19,3.91-0.18l5.77-0.36
		c1.4-0.01,2.97-1.14,2.97-3.17c-1.06-0.02-1.54-0.37-2.79-0.37c-1.94,0-4.36-0.14-6.18,0.15c-1.26,0.2-2.01-0.15-2.93-0.15v-0.19
		c0.61,0,0.62-0.18,1.48-0.19c1.35-0.02,3.35-0.05,4.73-0.29c1.43-0.25,3.2-0.08,4.54-0.48c0.13-0.04,0.38-0.1,0.55-0.2
		c0.34-0.21,0.27-0.11,0.41-0.52c-1.18,0-2.36,0-3.54,0c-1.22,0.01-1.94-0.19-3.34-0.19c-1.18,0-2.36,0-3.53,0
		c-0.86,0-1.8,0.12-2.62-0.17c-0.51-0.18-0.25,0-0.54-0.39c1-0.08,1.85-0.52,2.97-0.56c1.86-0.07,6.65-0.41,8.07-0.85
		c0.72-0.23,0.65-0.38,1.41-0.44v-0.74c-1.07,0-1.41-0.19-2.6-0.19c0.9-0.78,2.67-1.12,3.35-2.05c-2.98-0.69-5.84,0.04-7.62-0.37
		c0.54-0.34,1.61-0.46,2.23-0.56c1.58-0.25,3.41-0.25,4.82-0.76c0.62-0.22,1.5-0.58,1.88-1.1c-0.95-0.45-2.13-0.43-3.22-0.87
		c-0.51-0.2-0.46-0.29-1.06-0.43v-0.37c0.72-0.06,1.51-0.27,1.86-0.74c-1.24-0.03-2.21-0.56-3.53-0.56c-0.77,0-1.46,0.43-2.05-0.37
		c1.15-0.27,1.9-0.86,2.98-1.12c-0.33-0.69-0.32-1.09-1-1.42c-0.04-0.02-0.09-0.04-0.13-0.05c-0.34-0.17-0.16-0.06-0.36-0.2
		c0.71-0.17,0.78-0.39,1.49-0.56c-0.81-1.2-1.97-0.55-3.53-0.56l-8.55,0.38c-0.63,0.06-1.2,0.23-1.83,0.4
		c-2.26,0.6-1.21,0.52-3.75,0.52v-3.91c-0.89,1.02-0.16,3.07-1.3,3.91c-0.36-1.53-0.74-1.43-0.74-3.53v-5.21
		c-0.61,0.05-0.57-0.01-0.82,0.48c-0.12,0.25-0.23,0.74-0.3,1.01h-0.37c-0.64-2.74,0.24-3.92-2.6-2.42
		c-0.35-0.52-0.63-0.91-0.93-1.49h-1.12c-1.15-2.18-1.13-0.92-2.18,0.24c-0.37,0.41-1.12,0.94-1.34,1.26
		C97.67,170.95,97.32,173.99,96.16,173.99z"/>
	<path class="st0" d="M236.93,283.7l0.06,0.06C236.98,283.76,236.91,283.72,236.93,283.7L236.93,283.7z M229.67,282.4l-0.19,0.37
		L229.67,282.4L229.67,282.4z M235.81,282.77c0.14-0.6,0.32-0.82,0.37-1.49C236.87,281.77,236.67,282.52,235.81,282.77
		L235.81,282.77z M229.67,282.4c0.04-0.43,0.05-0.49,0.17-0.76c0.02-0.04,0.05-0.08,0.07-0.12l0.32-0.42L229.67,282.4L229.67,282.4z
		 M230.42,280.73l-0.19,0.37L230.42,280.73L230.42,280.73z M230.6,280.36l-0.19,0.37L230.6,280.36z M230.6,280.36l0.1-0.4
		L230.6,280.36L230.6,280.36z M231.16,279.98c0.01-0.06,0.2-0.04,0.22-0.03c0.04,0.01,0.32-0.42,0.08,0.05c0,0-0.03,0.03-0.03,0.03
		C231.16,280.1,231.12,280.32,231.16,279.98L231.16,279.98z M230.79,279.61l0.06,0.06C230.84,279.67,230.77,279.63,230.79,279.61
		L230.79,279.61z M231.53,279.43l0.06,0.06C231.59,279.48,231.51,279.45,231.53,279.43L231.53,279.43z M232.84,276.82v0.19
		l-0.22-0.15L232.84,276.82z M232.84,276.82c0.44-0.51,0.56-0.68,0.56-1.49h-0.19C233.21,276.14,232.91,275.91,232.84,276.82
		L232.84,276.82z M229.12,268.64c-0.06,0.69-1.37,4.34-2.23,4.65l1.05-2.3C228.43,269.99,228.68,269.15,229.12,268.64L229.12,268.64
		z M229.3,268.27l-0.19,0.37L229.3,268.27z M229.3,268.27l0.1-0.4L229.3,268.27L229.3,268.27z M229.67,267.34l-0.1,0.4
		L229.67,267.34z M229.67,267.34l0.1-0.4L229.67,267.34L229.67,267.34z M229.86,266.6l0.06,0.06
		C229.91,266.65,229.84,266.61,229.86,266.6L229.86,266.6z M230.05,266.22l0.06,0.06C230.1,266.28,230.03,266.24,230.05,266.22
		L230.05,266.22z M230.23,265.67l0.06,0.06C230.28,265.72,230.21,265.68,230.23,265.67L230.23,265.67z M230.6,265.29v0.19
		l-0.22-0.15L230.6,265.29z M230.6,265.29l0.59-1.09c0.15-0.42,0.3-0.76,0.34-1.33c-0.12,0.13-0.11,0.07-0.24,0.31L230.6,265.29
		L230.6,265.29z M244.74,262.5l0.06,0.06C244.79,262.56,244.72,262.52,244.74,262.5L244.74,262.5z M231.53,262.32l0.06,0.06
		C231.59,262.37,231.51,262.34,231.53,262.32L231.53,262.32z M236.37,250.6h0.19v0.56h-0.19V250.6L236.37,250.6z M236.74,249.49
		c0-0.47,0.3-0.04,0.11,0C236.85,249.49,236.74,250.01,236.74,249.49L236.74,249.49z M237.18,248.22l-0.07-1.52l0.74,0.21
		L237.18,248.22L237.18,248.22z M238.23,243.35l0.06,0.06C238.28,243.4,238.21,243.37,238.23,243.35L238.23,243.35z M238.41,242.24
		c0-0.46,0.3-0.04,0.11,0C238.53,242.24,238.41,242.76,238.41,242.24L238.41,242.24z M239.9,237.59c-0.53-0.39-0.68-0.32-0.32-0.88
		c0.23-0.35,0.09-0.27,0.51-0.42C239.82,236.84,239.9,236.8,239.9,237.59L239.9,237.59z M240.27,234.61l0.06,0.06
		C240.33,234.66,240.25,234.63,240.27,234.61L240.27,234.61z M240.09,234.24l0.06,0.06C240.14,234.29,240.07,234.26,240.09,234.24
		L240.09,234.24z M234.69,198.16h-0.19l0.15-0.22L234.69,198.16L234.69,198.16z M230.23,184.03l0.06,0.06
		C230.28,184.08,230.21,184.05,230.23,184.03L230.23,184.03z M258.31,183.66c0.19-0.19,0.67,0.27,0.21,0.1
		C258.52,183.76,258,183.97,258.31,183.66L258.31,183.66z M225.58,182.17l0.06,0.06C225.63,182.22,225.56,182.19,225.58,182.17
		L225.58,182.17z M234.69,198.16c3.54,1.88-0.36,2.05,6.69,2.05c0,4.03-0.02,8.06,0,12.09c0.01,1.24-0.2,1.61-0.19,2.79
		c0.01,1.03-0.22,5.29-0.65,6.24c-0.31,0.68-0.17,0.64,0.03,1.84c0.15,0.9-0.32,1.39-0.57,2.26c-0.26,0.95-0.46,3.69-0.86,5.28
		c-0.21,0.84-0.4,1.72-0.57,2.59c-0.33,1.69-0.67,3.33-1.02,5.11c-0.32,1.61-0.66,2.45-0.52,3.72l-4.16,14.12
		c-0.63,1.63,0.75-0.47-0.68,2.11c-0.42,0.76-0.12,0.35-0.14,0.99c-0.02,0.55-0.58,1.71-0.82,2.31c-0.34,0.86-0.55,1.22-0.9,2.08
		l-6.07,13.84c-0.26,0.55-0.45,0.54-0.18,1.11c0.56-0.41,1.52-2.64,1.98-3.6c0.39-0.81,0.28-0.86,0.81-1.05l-3.9,8.93
		c1.84-0.15,1.63-1.45,2.79-2.23c-0.16,0.7-0.5,1.55-0.56,2.23c0.49-0.24,1.67-0.67,1.67-2.23h0.19c0,1.07-0.23,0.86-0.11,1.97
		c0.09,0.8-0.25,0.71-0.45,1.56c0.76,0.2,0.8,0.7,1.67,0.93l1.3-2.42c-0.07,0.9-0.3,0.59-0.37,1.49c0.6-0.44,1.12-1.46,1.3-2.23
		c0.76,1.2,0.42,1.43,0.19,2.42c0.99-0.66,1.35-2.33,2.23-2.98c0,1.03-0.17,1.24-0.19,2.05l0.17-0.2c0.02-0.03,0.13-0.17,0.16-0.21
		l0.41-0.52c-0.12,1.47-1.12,3.62-1.49,5.21c1.45,0,1.49-0.84,2.16-1.93l1.32-2.4c0.28-0.44,0.03-0.06,0.25-0.31
		c0,1.08-0.12,1.43-0.19,2.23c0.7-0.19,0.54-0.36,1.12-0.74c-0.06,0.71-0.96,3.58-0.74,4.09c0.42-0.15,0.19,0.04,0.44-0.3
		c0.18-0.24,0.08-0.19,0.24-0.5c0.25-0.46,0.3-0.44,0.56-0.93l1.18-1.98c0.36,1.53,0,1.41,0,2.79h0.93c0.14,0.6,0.32,0.82,0.37,1.49
		c1.04-0.69,0.37,0.04,1.48,0c1.38-0.05,2.54-2.8,3.54-3.53c0,0.61-0.18,1.84-0.37,2.23c0.87-0.23,1.23-1.53,1.61-2.29
		c0.47-0.94,0.77-1.72,1.24-2.66c0.24-0.48,0.38-0.76,0.62-1.24l1.86-4.09c0.22-0.47,0.35-0.82,0.54-1.32
		c1.32-3.33,2.83-6.39,3.96-9.8c2.15-6.52,3.72-10.99,5.46-17.98l2.89-12.73c0.14-0.71,0.15-0.86,0.25-1.61
		c0.07-0.52,0.11-1.18,0.2-1.84c0.05-0.35,0.23-1.12,0.32-1.54l1.51-16.16c0.05-1.25,0-2.65-0.01-3.91c0-1.5,0.19-2.22,0.19-3.72
		c0-1.94,0.3-3.76,0.04-5.43c-0.1-0.65-0.04-1.35-0.04-2.01c0.01-1.81-0.52-7.28-0.9-8.78c-0.37-1.46,0.13-1.21-0.72-2.99
		c-0.35-0.73-0.24-0.83-0.24-1.8c-0.35-0.24-0.29-0.21-0.6-0.51c-0.83-0.78-1.44-0.82-1.44-2.28c-0.81-0.19-1.05-0.56-1.86-0.74
		c0.06,0.72,0.17,0.48,0.19,1.3c-0.51-0.34-0.67-0.49-1.49-0.56c0-1.4-0.43-1.3-1.86-1.3c0-3.13-2.24-3.53-4.91-3.05
		c-1.79,0.32-21.67,0.07-24.47,0.07l-0.4,1.29c-0.91,0.01-0.94,0.03-1.65,0.19v0.56c0.9-0.08,2.01-0.66,2.05,0.74
		c-1.81,0-1.67-0.69-1.67,2.05h2.42c-0.18,0.51,0.01,0.38-0.74,0.56c0,0.94-0.13,0.96-0.19,1.67c0.31,0.16,0.53,0.22,0.78,0.33
		c0.67,0.3,0.46,0.03,0.52,0.78c0.86-0.28-0.26-0.34,0.9-0.38c0.52-0.02,1.16,0.01,1.7,0.01c-0.08,0.93-0.83,1.15-1.3,1.86
		c0.36,0.08,0.63,0.16,1.01,0.3c0.71,0.26,0.42,0.28,1.04,0.45c-0.36,0.49-0.6,0.41-1.31,0.54c-0.66,0.12-1.07,0.25-1.66,0.38
		c0.24,0.49,0.17,0.2,0.19,0.93h6.69c-0.09,1.09-0.26,0.65-1.28,0.76c-1.1,0.12-0.7,0.46-1.69-0.21c-0.64,0.96-1.19,0.62-2.23,1.12
		c0.17,0.35,0.46,1.08,0.56,1.49c0.09,0,0.74-0.02,0.76-0.02c0.88,0.13,0.31-0.17,0.54,0.39c0.72-0.06,0.73-0.19,1.67-0.19
		c-0.21,0.8-0.38,0.64-1.11,0.93c-0.28,0.11-0.47,0.16-0.83,0.29c-0.8,0.29-0.2-0.18-0.66,0.45c3.11,0.73,1.02,0.56,2.6,1.49
		c0.36,0.21,1.09,0.63,1.49,0.74V198.16z"/>
	<path class="st0" d="M541.9,285.56l-0.19-0.19L541.9,285.56L541.9,285.56z M541.71,285.38h-0.19l0.16-0.22L541.71,285.38
		L541.71,285.38z M555.66,280.36h0.19l-0.15,0.22L555.66,280.36z M555.66,280.36L555.66,280.36L555.66,280.36z M553.8,275.52
		c-1.14-0.12-0.2-0.44-1.49-0.74c0.1-0.37-0.13-0.03,0.09-0.29c0.18-0.21,0.02-0.2,0.35-0.08c0.02,0.01,0.07,0.03,0.08,0.04
		L553.8,275.52L553.8,275.52z M548.04,271.24h0.19l-0.16,0.22L548.04,271.24z M548.04,271.24l-0.03-0.22l-0.15,0.22H548.04
		L548.04,271.24z M547.66,270.69l0.06,0.06C547.71,270.74,547.64,270.71,547.66,270.69L547.66,270.69z M529.63,269.01h0.19
		l-0.16,0.22L529.63,269.01z M529.63,269.01l-0.03-0.22l-0.15,0.22H529.63L529.63,269.01z M546.55,268.27h0.19l-0.15,0.22
		L546.55,268.27z M546.55,268.27l-0.4-0.1L546.55,268.27L546.55,268.27z M526.46,253.39c0.02-0.02,0.06,0.03,0.06,0.06
		L526.46,253.39L526.46,253.39z M532.41,250.79l0.06,0.06C532.47,250.84,532.4,250.81,532.41,250.79L532.41,250.79z M525.53,249.86
		l0.21,0.36L525.53,249.86z M525.53,249.86c-0.12-0.2-0.11,0-0.17-0.39c-0.03-0.2-0.01-0.52-0.01-0.73h0.19V249.86L525.53,249.86z
		 M524.23,244.1c0.12,0.14,0.14,0.04,0.25,0.31c0.18,0.43,0.08,0.1,0.12,0.62c-0.12-0.14-0.14-0.04-0.25-0.31
		C524.16,244.26,524.3,244.6,524.23,244.1L524.23,244.1z M523.12,238.89c0.72,0.48,0.59,0.82,0.74,1.86
		c0.13,0.85,0.37,1.49,0.37,2.42c-0.64-0.47-0.17,0.14-0.63-1.97C523.42,240.37,523.22,239.72,523.12,238.89L523.12,238.89z
		 M522.74,235.17h0.19c0,1.24,0.46,2.21,0.56,3.35C522.61,237.5,522.74,236.5,522.74,235.17L522.74,235.17z M522.19,233.31
		c0.55,0.21,0.29-0.4,0.37,0.56l-0.17-0.2C522.26,233.47,522.3,233.52,522.19,233.31L522.19,233.31z M536.32,232.19l0.06,0.06
		C536.37,232.25,536.3,232.21,536.32,232.19L536.32,232.19z M525.72,209.13l0.18-1.12c0.1-0.27,0.1-0.23,0.19-0.37l1.11,10.6
		c0.42,5.45,1.92,15.52,2.9,20.9c0.33,1.8,0.64,3.39,0.96,4.99l0.97,4.98c-0.65-0.47-0.59-1.02-0.86-1.93
		c-2.42-8.19-2.75-13.83-4.02-22.01l-0.7-7.86C526.49,215.27,525.72,210.21,525.72,209.13L525.72,209.13z M525.53,201.51h0.19v4.83
		h-0.19V201.51L525.53,201.51z M525.53,200.39l0.06,0.06C525.59,200.45,525.52,200.41,525.53,200.39L525.53,200.39z M541.9,285.56
		c0,0,0.23,0.22,0.28,0.27c0.63,0.55,0.7,0.68,1.39,0.84c0.29-0.43,0.36-0.37,0.37-1.12c0.48,0.35,0.43,0.55,0.81,1.05
		c0.16,0.22,0.8,0.74,1.1,0.73c0.45-0.03,0.66-2.43,0.69-2.89c0.5-0.04,0.51-0.09,0.93-0.19c-0.26-0.97-0.18-0.16-0.74-0.93
		l0.21-0.74l0.72,0.55c-0.35-1.49-1.32-2.17-2.05-3.53h0.93c0.78,1.46,1.17,2.42,2.79,2.42v0.37c-0.58-0.05-0.35,0-0.74-0.19
		l0.21,0.74c0.36-0.2,0.42-0.25,0.91-0.36c-0.22,0.59,0.4,0.27-0.56,0.37l0.56,0.56v-0.37c1.03,0.24,1.11,0.71,2.05,0.93
		c-0.45-0.86-0.96-1.11-1.42-1.92c-0.21-0.36-0.21-0.38-0.25-0.86c1.97,0.53,1.73,2.05,5.76,2.05c-0.08-0.93-0.99-1.46-1.63-2.09
		c-0.56-0.55-1.27-1.42-1.35-2.37c0.52,0.14,2.54,2.1,3.2,2.75c0.6,0.59,0.55,0.41,1.64,0.41c0.17-0.41,0.02-0.1,0.23-0.33
		l0.56-0.55c0.01-0.01,0.49-0.22,0.51-0.23c-0.4-0.54-0.12-0.23-0.74-0.56l-0.56,0.93c-1.02-0.09-0.56-0.16-0.93-0.93
		c0.55,0.15,0.3,0.08,0.74,0.37c-0.16-0.58-0.42-0.84-0.79-1.26c-0.82-0.95-2.46-2.59-2.56-3.76h0.56c0,0.98-0.21,0.91,0.56,1.12
		c-0.04-0.5-0.09-0.51-0.19-0.93c1.29,0.86,3.37,4.31,4.65,4.65c-0.6-2.58-2.28-4.25-3.61-6.43c-2.47-4.07-2.45-3.6-4.64-8.01
		l-2.28-5.53c-0.26-0.66-0.44-1.15-0.66-1.76c-2.64-7.5-4.54-13.81-6.19-22.08c-0.85-4.24-1.76-8.62-2.32-12.93
		c-0.07-0.56-0.08-0.76-0.16-1.14c-0.15-0.74-0.1-0.46-0.29-1.01c-0.04-0.11-0.25-0.98-0.25-1.07c-0.06-0.67-0.06-0.29,0.31-0.85
		c-0.2-0.75-0.26-1.04-0.93-1.49c0.78-1.16,0.18-2.72,0.19-4.09c0-1.06-0.19-1.28-0.19-2.42c0.01-1.61-0.37-3.15-0.37-4.84
		c0-0.55-0.08-0.8-0.11-1.19c-0.09-0.94,0.16-0.03,0.1-1.03c-0.04-0.7-0.37-0.82-0.37-2.24c0.01-0.87,0-1.74,0-2.6
		c2.39,0,4.69-0.25,6.81-0.63c1.95-0.35,4.09-1.21,4.54-2.9c-0.24-1.03-0.71-1.11-0.93-2.05c0.69,0,1.02-0.08,1.52-0.16
		c0.93-0.14,0.78,0.04,0.98-0.88c0.15-0.67,0.04-0.78,0.54-1.13c0.29-0.21,0.92-0.45,1.24-0.62c0-2.81,2.05-1.91,2.05-4.09
		c-0.88-0.19-1.49,0.12-2.42-0.37c0.44-0.61,1.63-0.93,2.42-1.12c-0.18-0.69-0.19-0.24-0.37-0.93c1.09-0.25,1.48-0.9,2.42-1.12
		l-0.75-1.48c0.61-0.14,0.82-0.32,1.49-0.38c0-1.44-0.28-2.01-0.37-3.16c-0.76,0-1.96,0.22-2.6,0.37c0.15-0.57,0.15-0.43,0.59-0.71
		c0.56-0.36,0.34-0.09,0.71-0.59c-1.07-0.51-6.56,1.36-9.81,0.52c-1.09-0.28-18.87-0.06-19.86,0.12c-0.83,0.15-1.26,0.08-2.13,0.1
		c-1.01,0.03-1.08,0.36-1.66,0.75c0.25,0.52,0.19,0.36,0.19,1.12H522c-0.01-0.57-0.08-0.68-0.19-1.12c-0.5,0.37-0.24,0.3-0.45,0.48
		c-0.74,0.68-0.82,0.04-1.59,1.38l-0.82,1.22c-0.12,0.31-0.21,1.35-0.3,1.75l-0.37-1.12c-0.21,0.91-0.43,1.78-0.55,2.8
		c-0.13,1.06-0.38,2.04-0.38,3.16c-0.55,0.23-0.65-0.2-0.74,0.93c0.29,0.41,0.03,0.23,0.56,0.37v0.56l-0.74,0.21
		c-0.01,2.54-0.38,4.39-0.38,6.86c0,1.24,0,2.48,0,3.72c0,1.47,0.19,2.19,0.19,3.53c-0.01,2.23,0.02,8.85,0.33,10.83l0.23,3.49
		c0.04,3.47,1.08,9.33,1.5,13.19l1.98,11.05c0.4,1.08,0.14,0.35,0.05,1.43c0.44,0.3,0.19,0.23,0.74,0.37
		c-0.04,0.03-0.11,0.03-0.12,0.1c-0.05,0.38-0.46,0.24,0.12,0.46c-0.02,0.84-0.19,0.74-0.19,1.67c0.42,0.1,0.43,0.14,0.93,0.19
		c0,1.64-0.55,1.98,0.93,2.98c-0.55,1.03-0.36,1.35-0.02,2.44c2.67,8.66,3.16,11.07,6.61,19.8c1.05,2.66,2.02,4.24,3.5,6.55
		c1.66,2.6,2.27,4.42,5.17,6.55c0.39,0.28,0.54,0.48,0.93,0.74c-0.18-0.68-0.2-0.39-0.56-0.93c0.61,0.16,1.45,0.74,1.62,1.41
		c0.25,0.99,1.32,0.4,1.91,0.27V285.56z"/>
	<path class="st0" d="M245.67,166.18v-0.19l0.22,0.15L245.67,166.18L245.67,166.18z M239.72,160.6l-0.19,0.19L239.72,160.6z
		 M239.72,160.6c0.14-0.52,0.37-0.84,0.74-1.12v2.23c-0.03-0.03-0.08-0.13-0.09-0.1C240.3,161.8,240.24,160.99,239.72,160.6
		L239.72,160.6z M234.51,154.65l-0.1,0.4L234.51,154.65z M234.51,154.65l0.1-0.4L234.51,154.65L234.51,154.65z M265.01,145.72v0.19
		l-0.22-0.15L265.01,145.72L265.01,145.72z M264.26,141.82c0.02-0.88-0.19-0.73,0.56-0.93
		C264.62,141.64,264.66,141.27,264.26,141.82L264.26,141.82z M255.52,139.77v0.19l-0.22-0.15L255.52,139.77L255.52,139.77z
		 M253.1,134.01c0.02-0.02,0.06,0.03,0.06,0.06L253.1,134.01L253.1,134.01z M237.11,159.48c0.12,0.14,0.13,0.05,0.25,0.31
		c0.19,0.43,0.05,0.13,0.15,0.6c0.09,0.44,0.15,0.57,0.16,1.14c0.55-0.41,0.75-1.28,0.93-2.05c0.02,0.04,0.06,0.05,0.07,0.12
		l0.17,0.39c0.08,0.26,0.14,0.37,0.14,0.79c0,0.53-0.26,0.97-0.38,1.49h0.56l0.37-1.49c0.29,0.6,0.3,1.69,0.72,2.07
		c0.29,0.26,0.95-0.01,0.95,1.83c0.57-0.15,0.87-0.45,1.3-0.74c0,0.79-0.22,1.76-0.37,2.42c0.38,0.2,0.44,0.26,0.93,0.37
		c0.26-0.54,0.6-1.41,0.74-2.05c1.23,0.1,0.93,0.76,0.93,2.05c0.68-0.18,0.39-0.2,0.93-0.56c-0.07,0.87-0.35,0.89-0.37,1.86
		c1.47-1.69,0.93-1.38,0.93-2.98h0.74l-0.56,4.46c0.45,0.22,0.85,0.32,1.3,0.56l3.16-5.39c0.02,0.04,0.07,0.04,0.08,0.11l0.11,0.63
		l1.29-1.5c0.02-0.02,0.19-0.26,0.24-0.32c1.51-2.16,2.06-3.49,3.97-6.07c0.71-0.96,1.28-1.72,1.99-2.66
		c1.29-1.7,2.53-3.38,4.12-4.81l2.49-3.08c0.61-0.77,1.25-1.17,1.33-2.2c-0.97,0.23-0.8,0.47-1.49,0.93c0.26-1.1,0.62-1.4,1.49-1.86
		c-0.27-0.57-0.44-1.1-0.74-1.67c-0.26,0.18-0.69,0.49-0.96,0.71c-0.54,0.43-0.37,0.59-1.08,0.78l1.9-2.01
		c-0.27-0.87-0.33-0.24-0.72-1.41c-0.2-0.6-0.38-0.98-0.44-1.61c-1.04,0.09-0.39,0.26-1.49,0c1.09-1.62-0.14,0,0.74-1.67
		c-1.17,0.31-1.69,1.44-2.6,2.05c0.13-0.56,0.14-0.48,0.41-0.9c0.19-0.3,0.29-0.52,0.48-0.82l0.97-1.63
		c-0.86-0.18-0.82-0.02-2.1,0.5l-1.59,0.64c-1.05,0.29-0.16-0.26-1.28,0.77l-2.47,2.18c0.2-0.73,3.51-4.12,4.24-5.05
		c0.24-0.31,1.55-1.47,1.46-2.22c-0.08-0.65-0.74-0.01-1.06,0.21c0.08-0.96,0.35-0.59,0.37-1.67c-1.14-0.27-0.99-0.09-1.86,0.37
		l0.4-1.29c-1.07,0.23-2,0.93-2.68,1.62c-1.24,1.26-1.51,1.88-2.56,1.91c0.19-0.71,1.81-2.15,2.34-2.86
		c0.35-0.46,0.55-0.64,0.82-1.04c-0.73,0.17-1.31,0.57-2.05,0.74v-0.74c-0.92,0.21-1.31,0.73-2.05,0.93c0.47-0.7,0.55-0.45,0.37-1.3
		c-0.59,0.16-0.83,0.44-1.27,0.77l-0.95,0.73c-0.03,0.02-0.08,0.07-0.1,0.09c-0.02,0.02-0.07,0.06-0.1,0.09
		c-0.44-0.3-0.19-0.22-0.74-0.37l-0.67,0.45c-0.5,0.45,0.1,0.39-1.41,1.57c-2.65,2.08-4.18,4.82-4.79,5.44
		c-1.01,1.03-0.64,1.56-1.87,1.66c-0.04,1.85-0.38-0.26-0.94,2.04c-0.16,0.67-0.09,0.46-0.66,0.82c-1.18,0.75,0.06-0.14-1.23,1.75
		l-3.93,6.48c-0.75,1.33-1.05,2.9-1.05,4.9c0.97,0.4-0.08-0.27,0.67,0.1c0.49,0.24,0.02,0.19,0.63,0.64
		c0.41-0.29,0.23-0.03,0.37-0.56h0.37c0.08,0.97-0.18,0.34,0.37,0.56c0.02-0.92,0.46-2.01,1.3-2.23c-0.07,0.8-0.37,1.52-0.56,2.23
		c-0.21,0.78-0.64,1.46-0.37,2.05c0.76-0.51,0.64-1.01,1.3-1.49C237.67,158.71,237.8,158.45,237.11,159.48z"/>
	<path class="st0" d="M538.18,166.18c0,0.88-0.21,1.34-0.37,2.05c-0.3,0.15,0.34,0.19-0.56,0l-0.74,1.3
		c-0.22-0.94,0.43-1.7,1.34-2.94L538.18,166.18L538.18,166.18z M534.65,166.74l-0.1,0.4L534.65,166.74L534.65,166.74z
		 M533.53,166.92v-0.19l0.22,0.15L533.53,166.92L533.53,166.92z M534.65,166.74v-0.19l0.22,0.16L534.65,166.74L534.65,166.74z
		 M538.18,166.18l0.22-0.03l-0.22-0.15V166.18L538.18,166.18z M537.62,162.65l0.06,0.06C537.67,162.7,537.6,162.66,537.62,162.65
		L537.62,162.65z M537.81,162.27l0.06,0.06C537.86,162.33,537.79,162.29,537.81,162.27L537.81,162.27z M524.98,157.25l-0.33,0.41
		C524.73,157.14,524.54,157.42,524.98,157.25z M524.98,157.25l0.22-0.03l-0.22-0.15V157.25L524.98,157.25z M547.85,150.74
		L547.85,150.74L547.85,150.74z M551.38,147.02L551.38,147.02L551.38,147.02z M537.25,141.82L537.25,141.82L537.25,141.82z
		 M533.53,166.92c-0.02,0.82-0.13,0.58-0.19,1.3c0.76-0.51,0.15-0.46,0.93-0.74c0,3.11-1.63,2.42,1.67,2.42l0.19,0.56
		c0.03,0.01,0.08,0,0.08,0.03c0.01,0.03,0.07,0.03,0.08,0.03l0.11,0.09c0.23,0.36-0.29,0.56,1.03,0.59
		c0.87-3.75,0.97-0.95,2.17-3.41c0.62-1.28,1.18-2.56,1.92-3.66l1.72-2.37c2.83-3.33,5.6-6.39,8.74-9.48
		c0.97-0.95,0.05-0.83,1.01-1.78l2.13-1.96c0.66-0.52,1.94-1.63,2.01-2.45c-1.06,0.25-1.47,0.29-2.49,1.04
		c-0.43,0.31-0.68,0.44-1.12,0.74c-0.58,0.4-0.6,0.49-1.22,0.82c0.15-0.64,0.46-1.15,0.74-1.67c-1.16,0.31-2.22,1.82-3.35,2.42
		c0.29-1.1,1.67-1.5,2.23-2.42c1.64-2.7,5.17-3.71,3.23-6.4l-0.43-0.86c-0.31-0.49-0.2-0.53-0.01-0.92
		c-0.78,0.07-0.61,0.21-1.3,0.37c0.06-0.76,0.19-1.01,0.19-2.05c-1.25,0.29-2.43,1.37-3.58,1.81c-1.15,0.45-2.4,2.02-3.3,2.09
		c0.46-0.68,1.44-1.32,2.08-1.83l2.31-1.97c0.35-0.26,0.38-0.36,0.68-0.62c0.27-0.23,0.61-0.42,0.88-0.61
		c-0.02-0.84-0.19-0.74-0.19-1.67l-2.3,1.05c-1.41,0.79-0.1,0.81-2.54,0.81c0.59-0.88,1.17-0.8,1.67-1.49
		c-0.53,0.12-1.41,0.51-1.86,0.74c0.16-0.61,0.35-0.64,0.79-1.07c0.38-0.37,0.61-0.56,0.88-0.98c-0.73-0.34-1.3,0.5-1.9,0.89
		c-1.26,0.84-4.65,3.84-5.91,3.94l1.67-1.3c-0.1-0.44-0.17-0.55-0.19-1.12c0.96-0.64,1.99-1.83,2.95-2.63
		c0.62-0.52,0.59-0.52,0.59-1.46c-1.38,0.37-2.46,1.75-3.72,2.42c0.17-0.71,0.39-0.78,0.56-1.49c-1.01,0.24-0.51,0.26-1.49,0
		l-5.81,4.6c-0.38,0.34-0.65,0.66-1.02,1.03l-6.98,7.71c-0.3,0.34-0.24,0.34-0.48,0.64c-0.21,0.26-0.33,0.3-0.51,0.61l-0.64,1.4
		c-0.42,0.73-0.43,1.06-1.11,0.75v0.93c-0.34-0.17-0.23-0.14-0.74-0.19v1.67c-0.59,0.4-0.13,0.31-0.93,0.37
		c-0.03,1.15-0.55,1.69-0.68,2.86c-0.11,1.03,0.64,1.42-0.07,2.9c0.49,0.33,0.52,0.43,1.12,0.74l0.57-0.73
		c0.02-0.03,0.07-0.08,0.09-0.1c0.02-0.02,0.06-0.07,0.09-0.1c-0.08,0.91-0.85,2.28,0.37,2.6c0.14-0.52,0.37-0.84,0.74-1.12
		c0,1.12-0.37,1.85-0.37,2.98c0.73-0.06,0.56,0.11,0.74-0.56c0.03,0.04,0.06,0.07,0.07,0.13c0.01,0.08,0.12,0.21,0.14,0.23
		c0.17,0.14-0.1,0.32,0.2,0.05c0.33-0.3,0.65-2.23,0.78-2.75c0.27-1.11,0.78-2.55,1.97-2.86c-0.26,0.39-0.59,0.74-0.88,1.16
		c-0.27,0.39-0.56,1.07-0.6,1.63c0.75-0.2,0.54-0.05,0.56-0.93c0.69,0.18,0.24,0.19,0.93,0.37c-0.64,0.96-0.77,1.04-0.97,2
		c-0.23,1.11-1.01,2.09-0.91,3.21c0.08,0.83-0.14,0.35,0.39,0.74c0.48-0.35,0.93-2.01,0.93-2.79l0.19,3.16
		c0.68-0.25,0.42-0.54,1.46-1.33c0.81-0.62,0.53-1,1.71-1.27c-0.32,1.2-1.47,2.45-2.05,3.53c0.5-0.12,1.1-0.27,1.39-0.66
		c0.19-0.26,0.39-1.22,0.47-1.57c0.79,0.21,0.26,0.53-0.02,2.21c-0.19,1.09-0.08,1.87,0.77,2.44L533.53,166.92z"/>
	<path class="st0" d="M553.06,147.02c0.95-0.45,0.64,0.12,1.09-0.96c0.41-0.97,0.44-0.39,0.96-1.09c-0.48-0.2-0.15-0.29-0.61,0.12
		c-0.26,0.23-0.33,0.39-0.51,0.63C553.58,146.28,553.23,146.35,553.06,147.02z"/>
	<path class="st0" d="M337.9,287.24c0.17,0.72,0.23,0.93,0.93,1.12C338.67,287.75,338.36,287.55,337.9,287.24z"/>
	<path class="st0" d="M452.82,284.63c0-0.76,0.06-0.6-0.19-1.12c-0.3,0.22-0.38,0.02-0.31,0.49
		C452.37,284.36,452.62,284.49,452.82,284.63z"/>
	<path class="st0" d="M369.51,277.75l0.57-0.92l-0.75,0C369.37,277.32,369.41,277.33,369.51,277.75z"/>
	<path class="st0" d="M364.12,192.03c0.04-0.5,0.09-0.51,0.19-0.93c-0.33,0.13-0.31-0.37-0.47,0.47
		C363.76,191.98,363.83,191.81,364.12,192.03z"/>
	<rect x="417.31" y="181.24" class="st0" width="0.74" height="0.37"/>
	<rect x="235.25" y="156.88" class="st0" width="0.56" height="0.37"/>
	<path class="st0" d="M553.43,150.93c0.65-0.17,0.42-0.07,0.74-0.56C553.3,150.47,553.82,150.4,553.43,150.93z"/>
	<path class="st0" d="M555.29,149.44c0.65-0.17,0.42-0.07,0.74-0.56C555.16,148.98,555.68,148.91,555.29,149.44z"/>
	<path class="st0" d="M275.23,289.1c0.12-0.14,0.12-0.05,0.24-0.31c0.17-0.38,0.05-0.09,0.13-0.43h-0.37V289.1z"/>
	<path class="st0" d="M516.79,188.12h0.37v-0.74c-0.12,0.14-0.12,0.05-0.24,0.31C516.73,188.11,516.88,187.78,516.79,188.12z"/>
	<path class="st0" d="M547.66,283.15l0.93,0.56C548.41,283.2,548.56,283.22,547.66,283.15z"/>
	<path class="st0" d="M237.11,159.48c-0.36,0.1-0.29,0.03-0.56,0.19l0.33,0.41C237.07,159.79,237.03,159.84,237.11,159.48z"/>
	<path class="st0" d="M518.47,182.91h0.19c0-0.48,0.04-0.45,0.19-0.74C518.38,182.36,518.47,181.8,518.47,182.91z"/>
	<path class="st0" d="M446.87,172.13v-0.56h-0.37C446.62,172.08,446.43,171.86,446.87,172.13z"/>
	<path class="st0" d="M228.56,233.31h0.37c-0.13-0.54,0.02-0.27-0.37-0.56V233.31z"/>
	<rect x="200.29" y="285.38" class="st0" width="0.19" height="0.74"/>
	<path class="st0" d="M366.54,207.46c0.41-0.29,0.23-0.03,0.37-0.56C366.6,207.12,366.55,206.94,366.54,207.46z"/>
	<path class="st0" d="M549.71,283.52l0.52,0.6C550.12,283.52,550.27,283.67,549.71,283.52z"/>
	<path class="st0" d="M366.17,190.91c0.04,0.21,0.41,0.41,0.25,0.04C366.35,190.79,366.08,190.43,366.17,190.91z"/>
	<path class="st0" d="M140.04,193.7c0.19,0.19,0.67-0.27,0.22-0.1C140.25,193.6,139.73,193.39,140.04,193.7z"/>
	<path class="st0" d="M512.14,274.78c-0.1,0.52,0.44-0.09,0.18-0.07C511.98,274.73,512.22,274.39,512.14,274.78z"/>
	<path class="st0" d="M251.24,129.92c-0.07,0.4,0.27,0.13,0.25-0.04c0,0-0.01-0.03-0.01-0.03c0,0-0.05-0.01-0.05-0.01
		C251.08,129.87,251.32,129.53,251.24,129.92z"/>
	<path class="st0" d="M367.84,197.05c0,0.46,0.3,0.05,0.12,0C367.95,197.05,367.84,196.52,367.84,197.05z"/>
	<path class="st0" d="M543.76,287.05c0,0.46,0.3,0.05,0.12,0C543.87,287.05,543.76,286.52,543.76,287.05z"/>
	<path class="st0" d="M196.2,182.17c0,0.46,0.3,0.05,0.12,0C196.31,182.17,196.2,181.64,196.2,182.17z"/>
	<path class="st0" d="M266.49,286.31c-0.32,0.32,0.23,0.12,0.05,0C266.54,286.3,266.51,286.3,266.49,286.31z"/>
	<polygon class="st0" points="452.82,284.63 452.82,284.82 453.04,284.67 	"/>
	<polygon class="st0" points="533.34,168.22 533.16,168.22 533.31,168.44 	"/>
	<polygon class="st0" points="352.59,282.22 352.59,282.4 352.81,282.25 	"/>
	<path class="st0" d="M232.28,284.08l0,0.08c0.17-0.02-0.26,0.35,0.06-0.02L232.28,284.08z"/>
	<path class="st0" d="M365.42,189.24l0.06-0.06C365.48,189.19,365.41,189.22,365.42,189.24z"/>
</g>
</svg>
